<svg xmlns="http://www.w3.org/2000/svg" class="sc-hBEYId hcffRE" viewBox="0 0 24 24"><path fill-rule="evenodd" clip-rule="evenodd" d="M17.23 0H6.77C2.706 0 0 2.904 0 7.072v9.856C0 21.1 2.7 24 6.77 24h10.46C21.3 24 24 21.1 24 16.928V7.072C24 2.9 21.3 0 17.23 0zM6.77 1.674h10.46c3.117 0 5.096 2.125 5.096 5.398v9.856c0 3.273-1.979 5.398-5.095 5.398H6.769c-3.117 0-5.095-2.125-5.095-5.398V7.072c0-3.269 1.985-5.398 5.095-5.398zM12 7.063c.424 0 .774.315.83.724l.007.113v3.252h3.256a.837.837 0 01.114 1.667l-.114.008h-3.256v3.251a.837.837 0 01-1.667.114l-.007-.114v-3.251H7.907a.837.837 0 01-.114-1.667l.114-.008h3.256V7.9c0-.462.375-.837.837-.837z" fill="currentColor"></path></svg>