<svg xmlns="http://www.w3.org/2000/svg" class="sc-hBEYId eZgart" viewBox="0 0 402 80"><path d="M122.505 55.142c-3.891 0-6.927-1.406-9.108-4.217-2.18-2.81-3.271-6.756-3.271-11.834 0-5.098 1.1-9.061 3.299-11.891 2.219-2.848 5.283-4.273 9.193-4.273 4.098 0 7.219 1.509 9.362 4.526h.338c-.319-2.23-.479-3.992-.479-5.285V10.84h6.655v43.74h-5.189l-1.156-4.076h-.31c-2.124 3.092-5.236 4.638-9.334 4.638zm1.777-5.341c2.726 0 4.709-.76 5.95-2.277 1.24-1.537 1.879-4.02 1.917-7.45v-.927c0-3.917-.639-6.7-1.917-8.349-1.279-1.649-3.281-2.474-6.007-2.474-2.331 0-4.126.947-5.386 2.84-1.259 1.874-1.889 4.553-1.889 8.04 0 3.447.611 6.08 1.833 7.898 1.222 1.8 3.055 2.699 5.499 2.699zM161.151 55.142c-4.851 0-8.648-1.406-11.393-4.217-2.725-2.83-4.088-6.718-4.088-11.666 0-5.078 1.269-9.07 3.806-11.975 2.538-2.904 6.025-4.357 10.462-4.357 4.117 0 7.369 1.246 9.757 3.739 2.387 2.492 3.581 5.922 3.581 10.288v3.57h-20.782c.094 3.017.911 5.341 2.453 6.972 1.541 1.611 3.713 2.417 6.514 2.417 1.842 0 3.553-.168 5.132-.506 1.598-.356 3.308-.937 5.132-1.743v5.37a20.386 20.386 0 01-4.907 1.63c-1.654.318-3.543.478-5.667.478zm-1.213-27.211c-2.105 0-3.797.665-5.076 1.996-1.259 1.33-2.011 3.27-2.256 5.819h14.156c-.038-2.568-.658-4.508-1.861-5.82-1.203-1.33-2.858-1.995-4.963-1.995zM193.987 55.142c-4.85 0-8.648-1.406-11.392-4.217-2.726-2.83-4.089-6.718-4.089-11.666 0-5.078 1.269-9.07 3.807-11.975 2.538-2.904 6.025-4.357 10.461-4.357 4.117 0 7.37 1.246 9.757 3.739 2.387 2.492 3.581 5.922 3.581 10.288v3.57H185.33c.094 3.017.912 5.341 2.453 6.972 1.542 1.611 3.713 2.417 6.514 2.417 1.842 0 3.553-.168 5.132-.506 1.598-.356 3.309-.937 5.132-1.743v5.37a20.38 20.38 0 01-4.906 1.63c-1.655.318-3.544.478-5.668.478zm-1.213-27.211c-2.105 0-3.797.665-5.075 1.996-1.26 1.33-2.012 3.27-2.256 5.819h14.155c-.037-2.568-.658-4.508-1.861-5.82-1.203-1.33-2.857-1.995-4.963-1.995zM229.023 55.142c-3.948 0-7.012-1.415-9.193-4.245h-.395c.264 2.624.395 4.217.395 4.779V68.41h-6.626V23.49h5.357c.151.58.461 1.967.931 4.16h.338c2.068-3.149 5.17-4.723 9.306-4.723 3.891 0 6.918 1.406 9.079 4.217 2.181 2.81 3.271 6.756 3.271 11.834 0 5.079-1.109 9.042-3.327 11.89-2.199 2.85-5.245 4.274-9.136 4.274zm-1.607-26.818c-2.632 0-4.559.769-5.781 2.305-1.203 1.537-1.805 3.992-1.805 7.365v.984c0 3.786.602 6.531 1.805 8.237 1.203 1.686 3.167 2.53 5.893 2.53 2.294 0 4.061-.938 5.302-2.811 1.24-1.875 1.861-4.545 1.861-8.012 0-3.486-.621-6.119-1.861-7.899-1.222-1.8-3.027-2.699-5.414-2.699zM272.49 44.797c0 3.41-1.166 5.988-3.497 7.73-2.331 1.743-5.677 2.615-10.038 2.615-2.369 0-4.427-.132-6.176-.394-1.748-.243-3.534-.703-5.357-1.377v-8.799c1.71.75 3.581 1.368 5.611 1.855 2.049.488 3.873.731 5.471.731 2.387 0 3.581-.543 3.581-1.63 0-.562-.339-1.059-1.015-1.49-.658-.45-2.595-1.312-5.809-2.586-2.933-1.2-4.982-2.558-6.147-4.076-1.166-1.537-1.749-3.476-1.749-5.819 0-2.96 1.147-5.266 3.441-6.915 2.293-1.65 5.536-2.474 9.728-2.474 2.105 0 4.079.235 5.922.703 1.861.45 3.788 1.115 5.78 1.996l-2.989 7.084a32.419 32.419 0 00-4.653-1.659c-1.635-.468-2.97-.703-4.004-.703-1.804 0-2.707.44-2.707 1.322 0 .543.31 1.011.931 1.405.639.375 2.463 1.153 5.47 2.333 2.237.919 3.901 1.818 4.991 2.699 1.11.88 1.918 1.92 2.425 3.12.527 1.18.79 2.624.79 4.33zM293.822 46.456c1.485 0 3.261-.366 5.329-1.097v8.012c-1.485.637-2.904 1.087-4.258 1.349-1.335.281-2.904.422-4.709.422-3.703 0-6.373-.9-8.008-2.699-1.636-1.818-2.454-4.6-2.454-8.349V30.967h-3.863v-4.47l4.907-3.457 2.848-6.69h7.219v6.38h7.839v8.237h-7.839v12.396c0 2.062.996 3.093 2.989 3.093zM325.135 54.58l-2.115-4.217h-.225c-1.485 1.837-2.999 3.092-4.54 3.767-1.542.674-3.534 1.012-5.978 1.012-3.008 0-5.377-.9-7.106-2.699-1.73-1.799-2.594-4.329-2.594-7.59 0-3.392 1.184-5.912 3.553-7.561 2.368-1.668 5.799-2.605 10.292-2.811l5.329-.17v-.449c0-2.624-1.297-3.935-3.891-3.935-2.331 0-5.292.787-8.882 2.361l-3.187-7.252c3.722-1.912 8.422-2.868 14.099-2.868 4.099 0 7.266 1.012 9.503 3.036 2.256 2.024 3.384 4.854 3.384 8.49V54.58h-7.642zm-8.177-7.197c1.334 0 2.472-.421 3.412-1.265.959-.843 1.438-1.94 1.438-3.289v-2.473l-2.538.112c-3.628.131-5.442 1.462-5.442 3.992 0 1.949 1.043 2.923 3.13 2.923zM364.514 44.797c0 3.41-1.166 5.988-3.497 7.73-2.331 1.743-5.677 2.615-10.038 2.615-2.369 0-4.428-.132-6.176-.394-1.748-.243-3.534-.703-5.358-1.377v-8.799c1.711.75 3.582 1.368 5.612 1.855 2.049.488 3.872.731 5.47.731 2.388 0 3.582-.543 3.582-1.63 0-.562-.339-1.059-1.016-1.49-.658-.45-2.594-1.312-5.808-2.586-2.933-1.2-4.982-2.558-6.148-4.076-1.165-1.537-1.748-3.476-1.748-5.819 0-2.96 1.147-5.266 3.44-6.915 2.294-1.65 5.536-2.474 9.729-2.474 2.105 0 4.079.235 5.921.703 1.861.45 3.788 1.115 5.781 1.996l-2.989 7.084a32.419 32.419 0 00-4.653-1.659c-1.635-.468-2.97-.703-4.004-.703-1.805 0-2.707.44-2.707 1.322 0 .543.31 1.011.931 1.405.639.375 2.462 1.153 5.47 2.333 2.237.919 3.901 1.818 4.991 2.699 1.109.88 1.918 1.92 2.425 3.12.527 1.18.79 2.624.79 4.33zM390.301 54.58V37.207c0-4.273-1.269-6.409-3.807-6.409-1.805 0-3.14.76-4.004 2.277-.846 1.5-1.269 4.001-1.269 7.505v14h-11.026V10.84h11.026v6.212c0 2.811-.151 6.016-.451 9.614h.507c1.053-1.65 2.303-2.811 3.75-3.486 1.448-.674 3.131-1.012 5.048-1.012 3.572 0 6.345 1.03 8.318 3.092 1.993 2.043 2.989 4.91 2.989 8.602V54.58h-11.081z" fill="#fff"/><path fill-rule="evenodd" clip-rule="evenodd" d="M48.122 64.055h23.1a3.714 3.714 0 002.875-1.355l4.722-4.722c.243-.19.463-.41.652-.653l.089-.088v-.03c.434-.606.69-1.349.69-2.151V3.706A3.711 3.711 0 0076.533 0h-51.51c-1.124 0-2.13.496-2.812 1.281L17.44 6.067A3.695 3.695 0 0015.995 9v23.029h30.677c.801 0 1.45.647 1.45 1.445v30.582z" fill="#9325A5"/><path fill-rule="evenodd" clip-rule="evenodd" d="M48.122 69.416h17.723a3.714 3.714 0 002.874-1.356l4.722-4.721c.244-.19.463-.41.653-.653l.088-.088v-.03c.434-.606.69-1.35.69-2.152V9.066a3.711 3.711 0 00-3.717-3.705h-51.51c-1.123 0-2.13.496-2.811 1.281l-4.773 4.786a3.695 3.695 0 00-1.444 2.932v17.668h36.055c.801 0 1.45.647 1.45 1.445v35.943z" fill="#E3503D"/><path fill-rule="evenodd" clip-rule="evenodd" d="M9.095 74.64h51.51a3.714 3.714 0 002.874-1.356l4.722-4.722c.244-.19.464-.409.653-.653l.088-.088v-.03c.435-.606.69-1.349.69-2.151V14.29a3.711 3.711 0 00-3.717-3.706h-51.51c-1.123 0-2.13.497-2.811 1.281L6.82 16.652a3.695 3.695 0 00-1.443 2.932v51.35c0 .227.02.449.06.664l-.06 3.041 3.011-.066c.229.043.465.066.706.066zm1.318-42.612c-.801 0-1.45.647-1.45 1.445V69.62c0 .798.649 1.445 1.45 1.445h36.26c.8 0 1.45-.647 1.45-1.445V33.473c0-.798-.65-1.445-1.45-1.445h-36.26z" fill="#FF8827"/><path fill-rule="evenodd" clip-rule="evenodd" d="M3.717 80h51.51a3.714 3.714 0 002.875-1.355l4.722-4.722c.244-.19.463-.41.653-.653l.088-.088v-.03c.434-.606.69-1.349.69-2.151V19.65a3.711 3.711 0 00-3.717-3.706H9.028c-1.123 0-2.13.497-2.812 1.281l-4.772 4.786A3.695 3.695 0 000 24.945v51.35c0 .226.06 1.734 1.138 2.646 1.08.912 1.874.992 1.874.992.228.044.464.067.705.067zm9.355-47.972a4.103 4.103 0 00-4.11 4.096v30.845a4.103 4.103 0 004.11 4.096h30.941c2.27 0 4.11-1.834 4.11-4.096V36.124a4.103 4.103 0 00-4.11-4.096H13.072z" fill="#F6AC07"/></svg>