<svg xmlns="http://www.w3.org/2000/svg" class="sc-hBEYId frBwNn" viewBox="0 0 24 24"><path fill-rule="evenodd" clip-rule="evenodd" d="M3.55 8.245C3.55 3.705 7.316 0 12 0s8.451 3.706 8.451 8.245v5.007c0 1.017.472 1.975 1.276 2.607l.396.31c1.703 1.338.775 4.076-1.486 4.076H3.363c-2.26 0-3.19-2.738-1.486-4.075l.396-.31a3.317 3.317 0 001.276-2.608V8.245zM12 1.469c-3.805 0-6.916 3.019-6.916 6.776v5.007c0 1.45-.672 2.828-1.837 3.743l-.396.31c-.643.506-.237 1.47.512 1.47h17.274c.75 0 1.155-.964.512-1.47l-.395-.31a4.764 4.764 0 01-1.838-3.743V8.245c0-3.757-3.111-6.776-6.916-6.776zM9.312 23.265c0-.405.343-.734.767-.734h3.842c.424 0 .768.329.768.734 0 .406-.344.735-.768.735h-3.842c-.424 0-.767-.329-.767-.735z" fill="currentColor"></path></svg>