<svg xmlns="http://www.w3.org/2000/svg" class="sc-hBEYId fuNIrf" viewBox="0 0 24 24"><path fill-rule="evenodd" clip-rule="evenodd" d="M3.35482 2.30577C3.12991 2.54813 3 2.91847 3 3.4032V20.5956C3 21.0803 3.12991 21.4507 3.36258 21.6833L3.42268 21.7357L13.0552 12.1031V11.8879L3.41493 2.25342L3.35482 2.30577Z" fill="url(#paint0_linear)"/><path fill-rule="evenodd" clip-rule="evenodd" d="M16.2603 15.3238L13.0475 12.111V11.8861L16.2603 8.67334L16.3301 8.716L20.1304 10.876C21.2181 11.4887 21.2181 12.5008 20.1304 13.1212L16.3301 15.2812L16.2603 15.3238Z" fill="url(#paint1_linear)"/><path fill-rule="evenodd" clip-rule="evenodd" d="M16.3301 15.2816L13.0475 11.999L3.35486 21.6917C3.70968 22.0717 4.30493 22.1144 4.96998 21.744L16.3301 15.2816Z" fill="url(#paint2_linear)"/><path fill-rule="evenodd" clip-rule="evenodd" d="M16.3301 8.71682L4.96998 2.2641C4.30493 1.88407 3.70774 1.93642 3.35486 2.31645L13.0475 11.9994L16.3301 8.71682Z" fill="url(#paint3_linear)"/><path opacity="0.2" fill-rule="evenodd" clip-rule="evenodd" d="M16.2602 15.2114L4.97767 21.6215C4.34752 21.9841 3.78523 21.9589 3.42266 21.6292L3.36255 21.6894L3.42266 21.7417C3.78523 22.0694 4.34752 22.0965 4.97767 21.7339L16.3378 15.2812L16.2602 15.2114Z" fill="black"/><path opacity="0.12" fill-rule="evenodd" clip-rule="evenodd" d="M20.1304 13.0092L16.2506 15.2118L16.3204 15.2816L20.1207 13.1217C20.6655 12.8114 20.9331 12.4043 20.9331 11.999C20.9001 12.3713 20.6229 12.7242 20.1304 13.0092Z" fill="black"/><path opacity="0.25" fill-rule="evenodd" clip-rule="evenodd" d="M4.96994 2.37604L20.1304 10.9887C20.6228 11.266 20.9001 11.6286 20.9428 11.9989C20.9428 11.5937 20.6752 11.1865 20.1304 10.8763L4.96994 2.26358C3.88221 1.64119 3 2.16082 3 3.40367V3.51612C3 2.27134 3.88221 1.7614 4.96994 2.37604Z" fill="white"/><defs><linearGradient id="paint0_linear" x1="12.1912" y1="3.21771" x2="-3.23847" y2="7.32897" gradientUnits="userSpaceOnUse"><stop stop-color="#00A0FF"/><stop offset="0.00657" stop-color="#00A1FF"/><stop offset="0.2601" stop-color="#00BEFF"/><stop offset="0.5122" stop-color="#00D2FF"/><stop offset="0.7604" stop-color="#00DFFF"/><stop offset="1" stop-color="#00E3FF"/></linearGradient><linearGradient id="paint1_linear" x1="21.5489" y1="11.9986" x2="2.73563" y2="11.9986" gradientUnits="userSpaceOnUse"><stop stop-color="#FFE000"/><stop offset="0.4087" stop-color="#FFBD00"/><stop offset="0.7754" stop-color="#FFA500"/><stop offset="1" stop-color="#FF9C00"/></linearGradient><linearGradient id="paint2_linear" x1="14.5452" y1="13.7852" x2="2.15829" y2="34.6334" gradientUnits="userSpaceOnUse"><stop stop-color="#FF3A44"/><stop offset="1" stop-color="#C31162"/></linearGradient><linearGradient id="paint3_linear" x1="0.914141" y1="-3.41171" x2="6.44042" y2="5.89939" gradientUnits="userSpaceOnUse"><stop stop-color="#32A071"/><stop offset="0.0685" stop-color="#2DA771"/><stop offset="0.4762" stop-color="#15CF74"/><stop offset="0.8009" stop-color="#06E775"/><stop offset="1" stop-color="#00F076"/></linearGradient></defs></svg>