<svg viewBox="0 0 196 46" fill="none" xmlns="http://www.w3.org/2000/svg"><path fill-rule="evenodd" clip-rule="evenodd" d="M56.027 24.2029V26.8593H62.4024C62.3025 28.1105 61.7824 29.2911 60.9266 30.2094C59.6368 31.5232 57.8519 32.2308 56.0122 32.1575C52.0999 32.1575 48.9283 28.9859 48.9283 25.0736C48.9283 21.1613 52.0999 17.9897 56.0122 17.9897C57.8094 17.9604 59.5449 18.6451 60.8381 19.8935L62.7124 18.0192C60.9487 16.2333 58.5369 15.2377 56.027 15.2595C52.454 15.1204 49.0912 16.9473 47.2634 20.0205C45.4356 23.0937 45.4356 26.9207 47.2634 29.9939C49.0912 33.067 52.454 34.8939 56.027 34.7549C58.5827 34.8704 61.0635 33.8748 62.8304 32.0246C64.3766 30.3259 65.2021 28.0927 65.1327 25.7967C65.1374 25.2374 65.088 24.6789 64.9851 24.1291L56.027 24.2029ZM72.3938 22.2696C68.9317 22.2777 66.131 25.0895 66.1364 28.5516C66.1418 32.0137 68.9514 34.8166 72.4135 34.8139C75.8756 34.8112 78.6808 32.0039 78.6808 28.5418C78.7051 26.8658 78.048 25.2517 76.86 24.0693C75.672 22.8869 74.0549 22.2374 72.3791 22.2696H72.3938ZM79.8911 28.5613C79.8802 25.1012 82.6736 22.2859 86.1337 22.2696C87.8095 22.2374 89.4266 22.8869 90.6146 24.0693C91.8026 25.2517 92.4597 26.8658 92.4354 28.5418C92.4354 32.0019 89.6332 34.8084 86.173 34.8139C82.7128 34.8193 79.9019 32.0215 79.8911 28.5613ZM82.4322 30.1925C83.1062 31.6031 84.5739 32.4585 86.1335 32.3494C87.1124 32.3267 88.0406 31.9096 88.7075 31.1927C89.3745 30.4757 89.7235 29.5198 89.6755 28.5419C89.6717 26.9785 88.7126 25.5763 87.2569 25.0059C85.8012 24.4356 84.1449 24.8131 83.08 25.9578C82.0152 27.1025 81.7583 28.7818 82.4322 30.1925ZM68.6826 30.2037C69.3613 31.6135 70.8334 32.4646 72.3938 32.3494H72.379C73.3579 32.3267 74.2861 31.9095 74.953 31.1926C75.6199 30.4757 75.969 29.5197 75.9209 28.5418C75.9167 26.9771 74.9557 25.5744 73.4982 25.0053C72.0407 24.4362 70.3834 24.8167 69.3201 25.9646C68.2568 27.1124 68.004 28.7939 68.6826 30.2037ZM117.524 22.2693C119.971 22.3594 122.108 23.9506 122.896 26.2687L123.206 26.9328L114.808 30.401C115.335 31.5996 116.54 32.3546 117.849 32.3048C119.112 32.308 120.283 31.6465 120.933 30.5633L123.073 32.0391C121.908 33.7827 119.946 34.825 117.849 34.8137C116.182 34.8381 114.577 34.1837 113.402 33.0007C112.228 31.8178 111.585 30.2081 111.621 28.5415C111.519 26.913 112.095 25.3149 113.214 24.1267C114.332 22.9384 115.892 22.2661 117.524 22.2693ZM114.336 28.3648C114.276 27.4426 114.589 26.535 115.205 25.8464C115.822 25.1579 116.689 24.7464 117.612 24.7048C118.586 24.6406 119.503 25.1633 119.944 26.033L114.336 28.3648ZM110.278 34.4449H107.518V15.9973H110.278V34.4449ZM103.002 23.6716H102.899C102.057 22.731 100.855 22.1942 99.593 22.1958C96.2431 22.3582 93.6105 25.1216 93.6105 28.4754C93.6105 31.8292 96.2431 34.5925 99.593 34.7549C100.859 34.7762 102.069 34.2358 102.899 33.2791H102.987V34.1794C102.987 36.5849 101.703 37.8689 99.6372 37.8689C98.2298 37.8359 96.9819 36.9554 96.479 35.6404L94.0734 36.644C94.9998 38.8972 97.201 40.3628 99.6372 40.3482C102.869 40.3482 105.54 38.4444 105.54 33.8104V22.6385H103.002V23.6716ZM99.8393 32.3489L99.8438 32.3493H99.8291L99.8393 32.3489ZM102.326 31.1654C101.693 31.8821 100.795 32.3094 99.8393 32.3489C97.8682 32.1728 96.3571 30.5211 96.3571 28.5417C96.3571 26.5607 97.8705 24.908 99.8438 24.7341C100.797 24.7831 101.691 25.2149 102.321 25.9317C102.952 26.6486 103.267 27.5897 103.194 28.5417C103.275 29.4981 102.962 30.4461 102.326 31.1654ZM135.824 15.9975H129.227V34.4451H131.987V27.4497H135.839C137.982 27.6038 140.033 26.5473 141.152 24.7121C142.271 22.8769 142.271 20.5704 141.152 18.7351C140.033 16.8999 137.982 15.8435 135.839 15.9975H135.824ZM131.972 24.8521H135.824L135.883 24.8964C137.631 24.8964 139.049 23.4791 139.049 21.7308C139.049 19.9825 137.631 18.5652 135.883 18.5652H131.972V24.8521ZM152.84 22.1958C150.787 22.073 148.856 23.1803 147.926 25.0146L150.375 26.0329C150.869 25.1233 151.853 24.5908 152.884 24.6751C153.592 24.5925 154.303 24.7976 154.858 25.2444C155.413 25.6911 155.765 26.3422 155.836 27.0512V27.243C154.949 26.7737 153.961 26.5304 152.958 26.5346C150.316 26.5346 147.645 28.0104 147.645 30.6817C147.698 31.8324 148.214 32.9128 149.075 33.6772C149.937 34.4417 151.071 34.825 152.22 34.7401C153.636 34.8418 154.994 34.1627 155.762 32.9692H155.851V34.445H158.507V27.3463C158.507 24.1143 156.057 22.24 152.914 22.24L152.84 22.1958ZM150.346 30.7408C150.346 31.8477 151.6 32.3052 152.501 32.3052L152.574 32.3494C154.237 32.3089 155.616 31.0499 155.806 29.3978C155.041 28.9704 154.174 28.7563 153.298 28.778C151.91 28.778 150.346 29.265 150.346 30.7408ZM168.188 22.6384L165.03 30.6373H164.942L161.665 22.6384H158.714L163.628 33.825L160.824 40.0382H163.702L171.258 22.6384H168.188ZM146.14 34.4449H143.38V15.9973H146.14V34.4449Z" fill="white"/><path fill-rule="evenodd" clip-rule="evenodd" d="M87.7126 1.63768C85.9715 3.48062 85.9715 6.36208 87.7126 8.20502C89.5087 9.99108 92.4101 9.99108 94.2061 8.20502C95.9546 6.36504 95.9546 3.47766 94.2061 1.63768C93.3472 0.772482 92.1785 0.285889 90.9594 0.285889C89.7402 0.285889 88.5715 0.772482 87.7126 1.63768ZM54.448 8.23476C55.2055 7.44392 55.6056 6.37706 55.5549 5.28315C55.5549 5.06046 55.5352 4.83821 55.4958 4.61904H51.2012V5.68162H54.4037C54.3819 6.3509 54.1199 6.98997 53.6658 7.4821C52.6543 8.45989 51.1538 8.73311 49.8626 8.17464C48.5713 7.61616 47.7428 6.33568 47.7626 4.92896C47.7305 3.99804 48.079 3.09422 48.7278 2.4259C49.3767 1.75758 50.2698 1.38245 51.2012 1.38702C52.1279 1.33639 53.0244 1.7245 53.6215 2.43484L54.4037 1.65267C54.0259 1.21812 53.5505 0.879275 53.0165 0.663876C52.4429 0.418402 51.8251 0.292845 51.2012 0.294924C49.9772 0.267644 48.7964 0.748478 47.9397 1.62315C46.6211 2.95038 46.2266 4.93871 46.9386 6.6688C47.6507 8.3989 49.3304 9.53359 51.2012 9.54823C52.421 9.59166 53.6015 9.11405 54.448 8.23476ZM58.3291 1.59344H62.3138V0.501343H57.1485V9.35618H62.3138V8.26408H58.3291V5.46005H61.9596V4.39747H58.3291V1.59344ZM67.1549 9.35618H66.0185V1.59344H63.5391V0.501343H69.6932V1.59344H67.1549V9.35618ZM74.0319 0.501343V9.35618H75.1683V0.501343H74.0319ZM80.2155 9.35618H79.0791V1.59344H76.5998V0.501343H82.6801V1.59344H80.2155V9.35618ZM88.5538 7.46722C89.8839 8.79185 92.0347 8.79185 93.3649 7.46722C94.6713 6.02709 94.6713 3.83058 93.3649 2.39045C92.0347 1.06581 89.8839 1.06581 88.5538 2.39045C87.2474 3.83058 87.2474 6.02709 88.5538 7.46722ZM97.1135 0.501343V9.35618H98.2647V2.13949L102.766 9.35618H103.947V0.501343H102.81V7.39336L98.5008 0.501343H97.1135Z" fill="white"/><path d="M87.7126 8.20502L87.6399 8.27372L87.6421 8.27593L87.7126 8.20502ZM87.7126 1.63768L87.6416 1.5672L87.6399 1.56901L87.7126 1.63768ZM94.2061 8.20502L94.2767 8.27595L94.2786 8.2739L94.2061 8.20502ZM94.2061 1.63768L94.2786 1.56878L94.2771 1.56723L94.2061 1.63768ZM55.5549 5.28315L55.4547 5.28311L55.455 5.28778L55.5549 5.28315ZM54.448 8.23476L54.52 8.30412L54.5202 8.30393L54.448 8.23476ZM55.4958 4.61904L55.5942 4.60136L55.5795 4.51904H55.4958V4.61904ZM51.2012 4.61904V4.51904H51.1012V4.61904H51.2012ZM51.2012 5.68162H51.1012V5.78162H51.2012V5.68162ZM54.4037 5.68162L54.5037 5.68488L54.507 5.58162H54.4037V5.68162ZM53.6658 7.4821L53.7354 7.55412L53.7393 7.54992L53.6658 7.4821ZM49.8626 8.17464L49.8229 8.26642H49.8229L49.8626 8.17464ZM47.7626 4.92896L47.8627 4.93036L47.8625 4.92551L47.7626 4.92896ZM48.7278 2.4259L48.7996 2.49556L48.7278 2.4259ZM51.2012 1.38702L51.2007 1.4872L51.2067 1.48687L51.2012 1.38702ZM53.6215 2.43484L53.545 2.49919L53.6152 2.58265L53.6923 2.50555L53.6215 2.43484ZM54.4037 1.65267L54.4744 1.72338L54.5404 1.65743L54.4792 1.58705L54.4037 1.65267ZM53.0165 0.663876L52.9771 0.755831L52.9791 0.756616L53.0165 0.663876ZM51.2012 0.294924L51.199 0.394932L51.2016 0.394923L51.2012 0.294924ZM47.9397 1.62315L48.0106 1.69363L48.0111 1.69312L47.9397 1.62315ZM46.9386 6.6688L47.0311 6.63074L46.9386 6.6688ZM51.2012 9.54823L51.2048 9.44825L51.202 9.44823L51.2012 9.54823ZM62.3138 1.59344V1.69344H62.4138V1.59344H62.3138ZM58.3291 1.59344V1.49344H58.2291V1.59344H58.3291ZM62.3138 0.501343H62.4138V0.401343H62.3138V0.501343ZM57.1485 0.501343V0.401343H57.0485V0.501343H57.1485ZM57.1485 9.35618H57.0485V9.45618H57.1485V9.35618ZM62.3138 9.35618V9.45618H62.4138V9.35618H62.3138ZM62.3138 8.26408H62.4138V8.16408H62.3138V8.26408ZM58.3291 8.26408H58.2291V8.36408H58.3291V8.26408ZM58.3291 5.46005V5.36005H58.2291V5.46005H58.3291ZM61.9596 5.46005V5.56005H62.0596V5.46005H61.9596ZM61.9596 4.39747H62.0596V4.29747H61.9596V4.39747ZM58.3291 4.39747H58.2291V4.49747H58.3291V4.39747ZM66.0185 9.35618H65.9185V9.45618H66.0185V9.35618ZM67.1549 9.35618V9.45618H67.2549V9.35618H67.1549ZM66.0185 1.59344H66.1185V1.49344H66.0185V1.59344ZM63.5391 1.59344H63.4391V1.69344H63.5391V1.59344ZM63.5391 0.501343V0.401343H63.4391V0.501343H63.5391ZM69.6932 0.501343H69.7932V0.401343H69.6932V0.501343ZM69.6932 1.59344V1.69344H69.7932V1.59344H69.6932ZM67.1549 1.59344V1.49344H67.0548V1.59344H67.1549ZM74.0319 9.35618H73.9319V9.45618H74.0319V9.35618ZM74.0319 0.501343V0.401343H73.9319V0.501343H74.0319ZM75.1683 9.35618V9.45618H75.2683V9.35618H75.1683ZM75.1683 0.501343H75.2683V0.401343H75.1683V0.501343ZM79.0791 9.35618H78.9791V9.45618H79.0791V9.35618ZM80.2155 9.35618V9.45618H80.3155V9.35618H80.2155ZM79.0791 1.59344H79.1791V1.49344H79.0791V1.59344ZM76.5998 1.59344H76.4998V1.69344H76.5998V1.59344ZM76.5998 0.501343V0.401343H76.4998V0.501343H76.5998ZM82.6801 0.501343H82.7801V0.401343H82.6801V0.501343ZM82.6801 1.59344V1.69344H82.7801V1.59344H82.6801ZM80.2155 1.59344V1.49344H80.1155V1.59344H80.2155ZM93.3649 7.46722L93.4355 7.53817L93.439 7.53441L93.3649 7.46722ZM88.5538 7.46722L88.4796 7.53449L88.4832 7.53808L88.5538 7.46722ZM93.3649 2.39045L93.4391 2.32317L93.4355 2.31959L93.3649 2.39045ZM88.5538 2.39045L88.4831 2.3195L88.4797 2.32326L88.5538 2.39045ZM97.1135 9.35618H97.0135V9.45618H97.1135V9.35618ZM97.1135 0.501343V0.401343H97.0135V0.501343H97.1135ZM98.2647 9.35618V9.45618H98.3647V9.35618H98.2647ZM98.2647 2.13949L98.3495 2.08657L98.1647 1.7902V2.13949H98.2647ZM102.766 9.35618L102.681 9.4091L102.71 9.45618H102.766V9.35618ZM103.947 9.35618V9.45618H104.047V9.35618H103.947ZM103.947 0.501343H104.047V0.401343H103.947V0.501343ZM102.81 0.501343V0.401343H102.71V0.501343H102.81ZM102.81 7.39336L102.725 7.44637L102.91 7.74191V7.39336H102.81ZM98.5008 0.501343L98.5856 0.448327L98.5562 0.401343H98.5008V0.501343ZM87.7853 8.13634C86.0806 6.33195 86.0806 3.51075 87.7853 1.70635L87.6399 1.56901C85.8624 3.45049 85.8624 6.39221 87.6399 8.27369L87.7853 8.13634ZM94.1356 8.13411C92.3786 9.88138 89.5402 9.88138 87.7831 8.13411L87.6421 8.27593C89.4772 10.1008 92.4416 10.1008 94.2767 8.27593L94.1356 8.13411ZM94.1336 1.70656C95.8455 3.50794 95.8455 6.33475 94.1336 8.13613L94.2786 8.2739C96.0638 6.39533 96.0638 3.44737 94.2786 1.56879L94.1336 1.70656ZM90.9594 0.385889C92.1519 0.385889 93.295 0.861846 94.1352 1.70813L94.2771 1.56723C93.3994 0.683118 92.2052 0.185889 90.9594 0.185889V0.385889ZM87.7836 1.70813C88.6237 0.861846 89.7669 0.385889 90.9594 0.385889V0.185889C89.7136 0.185889 88.5193 0.683118 87.6416 1.56723L87.7836 1.70813ZM55.455 5.28778C55.5044 6.35434 55.1143 7.39452 54.3758 8.16559L54.5202 8.30393C55.2966 7.49331 55.7067 6.39979 55.6547 5.27852L55.455 5.28778ZM55.3974 4.63671C55.4357 4.85005 55.4549 5.06637 55.4549 5.28311L55.6549 5.28319C55.6549 5.05456 55.6347 4.82638 55.5942 4.60136L55.3974 4.63671ZM51.2012 4.71904H55.4958V4.51904H51.2012V4.71904ZM51.3012 5.68162V4.61904H51.1012V5.68162H51.3012ZM54.4037 5.58162H51.2012V5.78162H54.4037V5.58162ZM53.7393 7.54992C54.2097 7.04015 54.481 6.37816 54.5037 5.68488L54.3038 5.67835C54.2827 6.32364 54.0302 6.9398 53.5923 7.41429L53.7393 7.54992ZM49.8229 8.26642C51.1512 8.84093 52.6948 8.55986 53.7353 7.554L53.5963 7.4102C52.6138 8.35992 51.1565 8.62529 49.9023 8.08285L49.8229 8.26642ZM47.6626 4.92755C47.6423 6.37466 48.4945 7.69191 49.8229 8.26642L49.9023 8.08285C48.6481 7.54041 47.8434 6.2967 47.8626 4.93036L47.6626 4.92755ZM48.6561 2.35624C47.9883 3.04408 47.6296 3.9743 47.6627 4.93241L47.8625 4.92551C47.8313 4.02178 48.1697 3.14436 48.7996 2.49556L48.6561 2.35624ZM51.2017 1.28702C50.2431 1.28232 49.3239 1.6684 48.6561 2.35624L48.7996 2.49556C49.4295 1.84675 50.2965 1.48258 51.2007 1.48702L51.2017 1.28702ZM53.6981 2.37049C53.0807 1.63609 52.1538 1.23482 51.1958 1.28717L51.2067 1.48687C52.1019 1.43795 52.968 1.81292 53.545 2.49919L53.6981 2.37049ZM54.333 1.58196L53.5508 2.36413L53.6923 2.50555L54.4744 1.72338L54.333 1.58196ZM52.9791 0.756616C53.4984 0.966106 53.9608 1.29566 54.3283 1.71828L54.4792 1.58705C54.091 1.14059 53.6026 0.792444 53.0539 0.571135L52.9791 0.756616ZM51.2016 0.394923C51.8118 0.39289 52.4161 0.515703 52.9771 0.75581L53.0558 0.571941C52.4697 0.321102 51.8384 0.1928 51.2009 0.194924L51.2016 0.394923ZM48.0111 1.69312C48.8485 0.838209 50.0026 0.368236 51.199 0.394899L51.2035 0.194949C49.9517 0.167053 48.7444 0.658747 47.8683 1.55317L48.0111 1.69312ZM47.0311 6.63074C46.3344 4.93787 46.7204 2.9923 48.0106 1.69363L47.8688 1.55267C46.5218 2.90845 46.1188 4.93955 46.8462 6.70686L47.0311 6.63074ZM51.202 9.44823C49.3714 9.43391 47.7278 8.32362 47.0311 6.63074L46.8462 6.70686C47.5735 8.47417 49.2894 9.63327 51.2004 9.64823L51.202 9.44823ZM54.376 8.16541C53.5492 9.02423 52.3961 9.49071 51.2048 9.44829L51.1977 9.64817C52.4458 9.69261 53.6539 9.20388 54.52 8.30412L54.376 8.16541ZM62.3138 1.49344H58.3291V1.69344H62.3138V1.49344ZM62.2138 0.501343V1.59344H62.4138V0.501343H62.2138ZM57.1485 0.601343H62.3138V0.401343H57.1485V0.601343ZM57.2485 9.35618V0.501343H57.0485V9.35618H57.2485ZM62.3138 9.25618H57.1485V9.45618H62.3138V9.25618ZM62.2138 8.26408V9.35618H62.4138V8.26408H62.2138ZM58.3291 8.36408H62.3138V8.16408H58.3291V8.36408ZM58.2291 5.46005V8.26408H58.4291V5.46005H58.2291ZM61.9596 5.36005H58.3291V5.56005H61.9596V5.36005ZM61.8596 4.39747V5.46005H62.0596V4.39747H61.8596ZM58.3291 4.49747H61.9596V4.29747H58.3291V4.49747ZM58.2291 1.59344V4.39747H58.4291V1.59344H58.2291ZM66.0185 9.45618H67.1549V9.25618H66.0185V9.45618ZM65.9185 1.59344V9.35618H66.1185V1.59344H65.9185ZM63.5391 1.69344H66.0185V1.49344H63.5391V1.69344ZM63.4391 0.501343V1.59344H63.6391V0.501343H63.4391ZM69.6932 0.401343H63.5391V0.601343H69.6932V0.401343ZM69.7932 1.59344V0.501343H69.5932V1.59344H69.7932ZM67.1549 1.69344H69.6932V1.49344H67.1549V1.69344ZM67.2549 9.35618V1.59344H67.0548V9.35618H67.2549ZM74.1319 9.35618V0.501343H73.9319V9.35618H74.1319ZM75.1683 9.25618H74.0319V9.45618H75.1683V9.25618ZM75.0683 0.501343V9.35618H75.2683V0.501343H75.0683ZM74.0319 0.601343H75.1683V0.401343H74.0319V0.601343ZM79.0791 9.45618H80.2155V9.25618H79.0791V9.45618ZM78.9791 1.59344V9.35618H79.1791V1.59344H78.9791ZM76.5998 1.69344H79.0791V1.49344H76.5998V1.69344ZM76.4998 0.501343V1.59344H76.6998V0.501343H76.4998ZM82.6801 0.401343H76.5998V0.601343H82.6801V0.401343ZM82.7801 1.59344V0.501343H82.5801V1.59344H82.7801ZM80.2155 1.69344H82.6801V1.49344H80.2155V1.69344ZM80.3155 9.35618V1.59344H80.1155V9.35618H80.3155ZM93.2943 7.39636C92.0032 8.68214 89.9155 8.68214 88.6243 7.39636L88.4832 7.53808C89.8524 8.90157 92.0663 8.90157 93.4355 7.53808L93.2943 7.39636ZM93.2908 2.45763C94.5626 3.85965 94.5626 5.99802 93.2908 7.40003L93.439 7.53441C94.7799 6.05616 94.7799 3.80151 93.439 2.32326L93.2908 2.45763ZM88.6243 2.46131C89.9155 1.17553 92.0032 1.17553 93.2943 2.46131L93.4355 2.31959C92.0663 0.956101 89.8524 0.956101 88.4832 2.31959L88.6243 2.46131ZM88.6278 7.40003C87.356 5.99802 87.356 3.85965 88.6278 2.45763L88.4797 2.32326C87.1387 3.80151 87.1387 6.05616 88.4797 7.53441L88.6278 7.40003ZM97.2135 9.35618V0.501343H97.0135V9.35618H97.2135ZM98.2647 9.25618H97.1135V9.45618H98.2647V9.25618ZM98.1647 2.13949V9.35618H98.3647V2.13949H98.1647ZM102.851 9.30326L98.3495 2.08657L98.1798 2.19241L102.681 9.4091L102.851 9.30326ZM103.947 9.25618H102.766V9.45618H103.947V9.25618ZM103.847 0.501343V9.35618H104.047V0.501343H103.847ZM102.81 0.601343H103.947V0.401343H102.81V0.601343ZM102.91 7.39336V0.501343H102.71V7.39336H102.91ZM98.416 0.554359L102.725 7.44637L102.895 7.34034L98.5856 0.448327L98.416 0.554359ZM97.1135 0.601343H98.5008V0.401343H97.1135V0.601343Z" fill="white"/><path d="M0.979507 1.29801C0.49849 1.87521 0.255703 2.61413 0.300636 3.36414V36.009C0.255703 36.759 0.49849 37.4979 0.979507 38.0751L1.08281 38.1784L19.3681 19.9079V19.4799L1.08281 1.1947L0.979507 1.29801Z" fill="url(#paint0_linear)"/><path d="M25.4189 26.0034L19.3681 19.9083V19.4803L25.4189 13.3705L25.5517 13.4443L32.7979 17.5618C34.8641 18.7277 34.8641 20.6462 32.7979 21.8269L25.5812 25.9296L25.4189 26.0034Z" fill="url(#paint1_linear)"/><path d="M25.5959 25.9145L19.368 19.6866L0.979431 38.0752C1.84826 38.839 3.13769 38.8762 4.04911 38.1637L25.6106 25.9145" fill="url(#paint2_linear)"/><path d="M25.5958 13.4587L4.03422 1.20951C3.1228 0.497104 1.83337 0.534299 0.964539 1.29806L19.3678 19.6866L25.5958 13.4587Z" fill="url(#paint3_linear)"/><path opacity="0.2" d="M25.4188 25.7819L4.03435 37.9573C3.15925 38.6115 1.95783 38.6115 1.08274 37.9573L0.979431 38.0606L1.08274 38.1639C1.95619 38.8231 3.1609 38.8231 4.03435 38.1639L25.5959 25.9147L25.4188 25.7819Z" fill="black"/><path opacity="0.12" fill-rule="evenodd" clip-rule="evenodd" d="M25.4186 25.7817L32.7976 21.6052C33.5602 21.2288 34.1052 20.5202 34.2734 19.6866C34.1974 20.6081 33.6345 21.4187 32.7976 21.8118L25.5514 25.9145L25.4186 25.7817ZM0.29712 36.0899C0.321489 36.7392 0.559786 37.3655 0.979202 37.8687L1.08251 37.9868L0.979202 38.0901C0.512283 37.5298 0.269834 36.8172 0.29712 36.0899ZM0.29712 36.0899C0.297944 36.0679 0.299014 36.046 0.300331 36.024V35.8026C0.294576 35.8987 0.293541 35.9945 0.29712 36.0899Z" fill="black"/><path opacity="0.25" d="M4.03432 1.41661L32.7978 17.7685C33.5603 18.1449 34.1054 18.8535 34.2736 19.6871C34.1975 18.7656 33.6347 17.9551 32.7978 17.5619L4.03432 1.21C1.96819 0.0441086 0.285767 1.01814 0.285767 3.37943V3.6008C0.330041 1.22475 1.98294 0.250721 4.03432 1.41661Z" fill="white"/><defs><linearGradient id="paint0_linear" x1="11.3592" y1="-20.9852" x2="-17.92" y2="-13.1983" gradientUnits="userSpaceOnUse"><stop stop-color="#00A0FF"/><stop offset="0.01" stop-color="#00A1FF"/><stop offset="0.26" stop-color="#00BEFF"/><stop offset="0.51" stop-color="#00D2FF"/><stop offset="0.76" stop-color="#00DFFF"/><stop offset="1" stop-color="#00E3FF"/></linearGradient><linearGradient id="paint1_linear" x1="35.4987" y1="4.63324" x2="-0.20109" y2="4.63324" gradientUnits="userSpaceOnUse"><stop stop-color="#FFE000"/><stop offset="0.41" stop-color="#FFBD00"/><stop offset="0.78" stop-color="#FFA500"/><stop offset="1" stop-color="#FF9C00"/></linearGradient><linearGradient id="paint2_linear" x1="0.439125" y1="10.1345" x2="-23.08" y2="49.6959" gradientUnits="userSpaceOnUse"><stop stop-color="#FF3A44"/><stop offset="1" stop-color="#C31162"/></linearGradient><linearGradient id="paint3_linear" x1="-13.3803" y1="-3.78461" x2="-2.88244" y2="13.8815" gradientUnits="userSpaceOnUse"><stop stop-color="#32A071"/><stop offset="0.07" stop-color="#2DA771"/><stop offset="0.48" stop-color="#15CF74"/><stop offset="0.8" stop-color="#06E775"/><stop offset="1" stop-color="#00F076"/></linearGradient></defs></svg>