<svg class="sc-hBEYId dhITRv" viewBox="0 0 84 173" xmlns="http://www.w3.org/2000/svg"><path d="M65.14 119.135c.65-3.225-1.006-7.091-1.912-10.403a228.1 228.1 0 00-4.549-14.297C48.548 65.9 32.874 39.705 12.346 16.998c-1.66-1.827-4.502-3.753-6.785-2.112-1.305.95-1.604 2.56-1.753 4.004-1.799 17.828 1.66 35.227 5.72 52.183 5.048 21.058 11.072 41.936 20.44 61.365.469.976 3.023 1.134 4.215.727l25.437-8.696c3.549-1.217 5.065-3.119 5.52-5.334z" stroke="#323130" stroke-width="3" stroke-linecap="round" stroke-linejoin="round"/><path d="M22.782 106.227c-2.293 8.103-3.932 18.348-5.61 26.518-.337 1.655-.375 3.813 1.298 4.261a4.167 4.167 0 001.962-.127 63.423 63.423 0 0012.975-4.514M56.855 94.532s12.957 11.748 18.805 16.576a7.626 7.626 0 012.175 2.439c.26.481.372 1.03.321 1.594-.05.563-.26 1.12-.607 1.615a5.98 5.98 0 01-2.229 1.491c-3.441 1.633-11.697 4.428-11.697 4.428M42.523 105.163c2.596 7.81 9.187 22.903 9.187 22.903M40.552 134.727l.85 7.437a.704.704 0 00.238.539c.112.048.238.07.367.067.13-.004.26-.034.381-.088l23.504-6.982-4.77-8.092M46.71 156.463a68.543 68.543 0 001.846-7.03M57.841 163.342a53.558 53.558 0 00-.321-14.525M64.828 144.448a36.574 36.574 0 007.807 9.705M10.095 61.042c8.137-5 17.566-8.024 27.136-8.702M12.615 75.353a114.282 114.282 0 0131.134-10.098" stroke="#323130" stroke-width="3" stroke-linecap="round" stroke-linejoin="round"/></svg>