<svg xmlns="http://www.w3.org/2000/svg" class="sc-hBEYId kFvQEP" viewBox="0 0 24 24"><path d="M17.96 2H6.04C3.8075 2 2 3.8075 2 6.04V17.9625C2 20.1925 3.8075 22 6.04 22H17.9625C20.1925 22 22.0025 20.1925 22.0025 17.96V6.04C22 3.8075 20.1925 2 17.96 2Z" fill="url(#paint0_linear)"/><path d="M11.915 6.59504L12.32 5.89504C12.57 5.45754 13.1275 5.31004 13.565 5.56004C14.0025 5.81004 14.15 6.36754 13.9 6.80504L9.99754 13.56H12.82C13.735 13.56 14.2475 14.635 13.85 15.38H5.57504C5.07004 15.38 4.66504 14.975 4.66504 14.47C4.66504 13.965 5.07004 13.56 5.57504 13.56H7.89504L10.865 8.41254L9.93754 6.80254C9.68754 6.36504 9.83504 5.81254 10.2725 5.55754C10.71 5.30754 11.2625 5.45504 11.5175 5.89254L11.915 6.59504ZM8.40504 16.3175L7.53004 17.835C7.28004 18.2725 6.72254 18.42 6.28504 18.17C5.84754 17.92 5.70004 17.3625 5.95004 16.925L6.60004 15.8C7.33504 15.5725 7.93254 15.7475 8.40504 16.3175ZM15.94 13.565H18.3075C18.8125 13.565 19.2175 13.97 19.2175 14.475C19.2175 14.98 18.8125 15.385 18.3075 15.385H16.9925L17.88 16.925C18.13 17.3625 17.9825 17.915 17.545 18.17C17.1075 18.42 16.555 18.2725 16.3 17.835C14.805 15.2425 13.6825 13.3025 12.9375 12.01C12.175 10.695 12.72 9.37504 13.2575 8.92754C13.855 9.95254 14.7475 11.5 15.94 13.565Z" fill="white"/><defs><linearGradient id="paint0_linear" x1="12.0012" y1="2" x2="12.0012" y2="22" gradientUnits="userSpaceOnUse"><stop stop-color="#18BFFB"/><stop offset="1" stop-color="#2072F3"/></linearGradient></defs></svg>