<svg viewBox="0 0 175 45" fill="currentColor" xmlns="http://www.w3.org/2000/svg"><path fill-rule="evenodd" clip-rule="evenodd" d="M100.717 32.5211C98.1943 32.5211 96.3481 31.2733 96.1356 29.3729L93.1998 29.3727C93.3852 32.839 96.2546 35.0318 100.505 35.0318C105.047 35.0318 107.903 32.7863 107.903 29.2009C107.903 26.3978 106.269 24.8184 102.337 23.8885L100.226 23.3701C97.7557 22.7598 96.746 21.9625 96.746 20.6077C96.746 18.9077 98.3269 17.7397 100.637 17.7397C102.948 17.7397 104.528 18.8941 104.702 20.8066H107.597C107.503 17.5 104.727 15.2289 100.678 15.2289C96.5862 15.2289 93.7047 17.5 93.7047 20.8066C93.7047 23.4771 95.3384 25.1229 98.8574 25.9728L101.341 26.5712C103.825 27.1815 104.874 28.0722 104.874 29.5597C104.874 31.2732 103.134 32.5211 100.717 32.5211ZM50.7512 29.5327H43.4464L41.6921 34.7125H38.5981L45.5171 15.5485H48.7317L55.6507 34.7125H52.5039L50.7512 29.5327ZM44.2031 27.1424H49.9933L47.1389 18.7359H47.0591L44.2031 27.1424ZM64.7618 34.8587C68.2688 34.8587 70.5927 32.0691 70.5927 27.7272C70.5927 23.3973 68.2552 20.5942 64.7091 20.5942C62.8844 20.5353 61.175 21.4844 60.2602 23.0643H60.2074V20.7404H57.4314V39.3347H60.2993V32.4142H60.3657C61.2416 34.004 62.9491 34.9535 64.7618 34.8587ZM67.6446 27.7272C67.6446 24.8984 66.1827 23.0387 63.9523 23.0387C61.761 23.0387 60.2871 24.9376 60.2871 27.7272C60.2871 30.5424 61.761 32.4278 63.9523 32.4278C66.1827 32.4278 67.6446 30.5816 67.6446 27.7272ZM80.1411 34.8586C83.6481 34.8586 85.972 32.069 85.972 27.7272C85.972 23.3973 83.6345 20.5942 80.0883 20.5942C78.2636 20.5353 76.5543 21.4844 75.6394 23.0643H75.5867V20.7403H72.8106V39.3346H75.6786V32.4141H75.745C76.6209 34.004 78.3284 34.9535 80.1411 34.8586ZM83.0223 27.7272C83.0223 24.8984 81.5604 23.0387 79.33 23.0387C77.1387 23.0387 75.6648 24.9376 75.6648 27.7272C75.6648 30.5424 77.1387 32.4278 79.33 32.4278C81.5605 32.4278 83.0223 30.5816 83.0223 27.7272ZM114.092 17.4338V20.7404H116.749V23.0115H114.092V30.7142C114.092 31.9108 114.624 32.4684 115.792 32.4684C116.107 32.4629 116.422 32.4408 116.735 32.4021V34.6597C116.21 34.7578 115.677 34.8022 115.142 34.7923C112.314 34.7923 111.21 33.7298 111.21 31.0201V23.0115H109.179V20.7404H111.21V17.4338H114.092ZM124.914 20.5687C120.876 20.5687 118.287 23.3311 118.287 27.7273C118.287 32.1355 120.851 34.8859 124.914 34.8859C128.978 34.8859 131.542 32.1355 131.542 27.7273C131.542 23.3311 128.965 20.5687 124.914 20.5687ZM128.619 27.7272C128.619 24.7115 127.237 22.9317 124.913 22.9317C122.59 22.9317 121.209 24.7251 121.209 27.7272C121.209 30.7549 122.59 32.5212 124.913 32.5212C127.237 32.5212 128.619 30.7549 128.619 27.7272H128.619ZM136.642 20.7404H133.907L133.907 34.7124H136.775V26.425C136.679 25.5866 136.955 24.7483 137.53 24.1303C138.104 23.5123 138.92 23.1762 139.763 23.2104C140.2 23.1977 140.635 23.2563 141.052 23.3838V20.7012C140.73 20.6289 140.4 20.593 140.069 20.5942C138.493 20.534 137.09 21.5876 136.709 23.1185H136.642V20.7404ZM154.276 30.6088C153.89 33.1452 151.42 34.8859 148.26 34.8859C144.195 34.8859 141.672 32.1626 141.672 27.7936C141.672 23.411 144.209 20.5687 148.139 20.5687C152.005 20.5687 154.436 23.2241 154.436 27.4605V28.4431H144.567V28.6165C144.475 29.6566 144.834 30.6863 145.553 31.4435C146.273 32.2007 147.282 32.6124 148.326 32.574C149.718 32.7044 151.03 31.9052 151.553 30.6088L154.276 30.6088ZM151.566 26.4387H144.58C144.578 25.4954 144.952 24.5902 145.621 23.9243C146.289 23.2584 147.195 22.8869 148.139 22.8926C149.074 22.8725 149.976 23.2437 150.627 23.9169C151.277 24.59 151.618 25.504 151.566 26.4387Z" fill="currentColor"/><path fill-rule="evenodd" clip-rule="evenodd" d="M76.6646 0.670044H78.036V10.3319H76.6646V0.670044ZM47.0939 2.38593C46.2545 1.49961 45.062 1.03638 43.8445 1.12375H40.5183V10.3321H43.8445C46.5873 10.3321 48.1773 8.64104 48.1773 5.69923C48.3308 4.48825 47.9332 3.27225 47.0939 2.38593ZM43.6854 9.02984H41.9493V2.42507H43.6854C44.5509 2.37704 45.3926 2.7183 45.9802 3.35553C46.5679 3.99275 46.84 4.85925 46.7222 5.71803C46.8493 6.58039 46.581 7.4541 45.9919 8.09656C45.4028 8.73903 44.5556 9.08185 43.6854 9.02984ZM49.7932 6.8544C49.674 5.60882 50.2713 4.40337 51.3345 3.74361C52.3977 3.08385 53.743 3.08385 54.8062 3.74361C55.8694 4.40337 56.4666 5.60882 56.3475 6.8544C56.4689 8.10132 55.8722 9.3091 54.808 9.97028C53.7439 10.6315 52.3968 10.6315 51.3326 9.97028C50.2685 9.3091 49.6718 8.10132 49.7932 6.8544ZM53.0713 4.46714C54.2588 4.46714 54.9355 5.34803 54.9355 6.85434H54.9355C54.9355 8.36669 54.2589 9.24682 53.0713 9.24684C51.8792 9.24684 51.2086 8.37274 51.2086 6.85436C51.2086 5.34803 51.8792 4.46714 53.0713 4.46714ZM65.0586 10.332H63.6359L62.1997 5.21394H62.0912L60.6609 10.332H59.2518L57.3363 3.38284H58.7274L59.9722 8.68544H60.0747L61.5034 3.38284H62.8191L64.2478 8.68544H64.3563L65.5951 3.38284H66.9665L65.0586 10.332ZM69.8987 3.38278H68.5785L68.5785 10.3319H69.95V6.26657C69.9008 5.8041 70.056 5.34321 70.3749 5.00473C70.6938 4.66624 71.1447 4.48392 71.6093 4.50555C72.6235 4.50555 73.1088 5.06092 73.1088 6.17766V10.3318H74.4802V5.83327C74.5808 5.15382 74.3669 4.46551 73.899 3.9627C73.431 3.4599 72.7599 3.19715 72.075 3.24864C71.1904 3.17674 70.3576 3.67393 70.0012 4.48671H69.8987V3.38278ZM81.4844 3.7435C80.4211 4.40327 79.8237 5.60875 79.9428 6.85441C79.8215 8.10137 80.4183 9.30912 81.4825 9.97027C82.5467 10.6314 83.8939 10.6314 84.9581 9.97027C86.0223 9.30912 86.6191 8.10137 86.4978 6.85441C86.6169 5.60875 86.0195 4.40327 84.9563 3.7435C83.893 3.08373 82.5476 3.08373 81.4844 3.7435ZM85.0866 6.85434C85.0866 5.34803 84.4099 4.46714 83.2224 4.46714C82.0303 4.46714 81.3597 5.34803 81.3597 6.85436C81.3597 8.37274 82.0303 9.24684 83.2224 9.24684C84.4099 9.24682 85.0866 8.36669 85.0866 6.85434ZM90.5253 6.2922C88.8721 6.39469 87.9407 7.11582 87.9407 8.36669C87.943 8.9598 88.1962 9.52424 88.6375 9.92048C89.0788 10.3167 89.6672 10.5078 90.2571 10.4464C91.0986 10.4853 91.896 10.0685 92.3444 9.35534H92.4529V10.3319H93.7731V5.58388C93.7731 4.11598 92.7905 3.24867 91.0483 3.24867C89.4719 3.24867 88.3491 4.01426 88.209 5.20787H89.5367C89.6889 4.71656 90.2194 4.43549 90.985 4.43549C91.9224 4.43549 92.4077 4.84993 92.4077 5.58388V6.18369L90.5253 6.2922ZM92.4088 7.77291V7.19194L90.7118 7.30045C89.7548 7.36449 89.3208 7.69002 89.3208 8.30265C89.3208 8.92808 89.8633 9.29204 90.6094 9.29204C91.051 9.33674 91.4919 9.2003 91.8311 8.91393C92.1703 8.62757 92.3788 8.21581 92.4088 7.77291ZM98.4625 3.26751C96.7067 3.26751 95.5779 4.65855 95.5779 6.85436C95.5779 9.05544 96.6947 10.4465 98.4625 10.4464C99.3588 10.4795 100.199 10.0125 100.645 9.234H100.753V10.3319H102.067V0.670044H100.696V4.48668H100.593C100.179 3.70171 99.349 3.22666 98.4625 3.26751ZM96.9935 6.85443C96.9935 8.32836 97.6883 9.21527 98.8503 9.21527C100.006 9.21527 100.721 8.31556 100.721 6.86047C100.721 5.41216 99.9987 4.49962 98.8503 4.49962C97.6958 4.49962 96.9935 5.39256 96.9935 6.85443H96.9935ZM109.282 3.74361C108.219 4.40337 107.622 5.60882 107.741 6.8544C107.62 8.10132 108.216 9.3091 109.28 9.97028C110.345 10.6315 111.692 10.6315 112.756 9.97028C113.82 9.3091 114.417 8.10132 114.295 6.8544C114.414 5.60882 113.817 4.40337 112.754 3.74361C111.691 3.08385 110.345 3.08385 109.282 3.74361ZM112.885 6.85434C112.885 5.34803 112.208 4.46714 111.021 4.46714C109.828 4.46714 109.158 5.34803 109.158 6.85436C109.158 8.37274 109.828 9.24684 111.021 9.24684C112.208 9.24682 112.885 8.36669 112.885 6.85434ZM117.455 3.38278H116.135V10.3319H117.507V6.26657C117.457 5.8041 117.613 5.34321 117.931 5.00473C118.25 4.66624 118.701 4.48392 119.166 4.50555C120.18 4.50555 120.665 5.06092 120.665 6.17766V10.3318H122.037V5.83327C122.137 5.15382 121.923 4.46551 121.456 3.9627C120.988 3.4599 120.316 3.19715 119.632 3.24864C118.747 3.17674 117.914 3.67393 117.558 4.48671H117.455V3.38278ZM129.787 1.65277V3.41454H131.293V4.56972H129.787V8.143C129.787 8.87092 130.087 9.18966 130.77 9.18966C130.945 9.1891 131.119 9.17853 131.293 9.15801V10.3004C131.047 10.3444 130.797 10.3679 130.547 10.3704C129.022 10.3704 128.414 9.83392 128.414 8.49414V4.56966H127.311V3.41448H128.414V1.65277H129.787ZM134.524 0.670044H133.164L133.164 10.3319H134.536V6.27334C134.493 5.79649 134.664 5.32524 135.001 4.98557C135.338 4.6459 135.808 4.47244 136.286 4.51157C137.255 4.51157 137.772 5.07371 137.772 6.18368V10.3319H139.144V5.84535C139.235 5.16939 139.02 4.48813 138.557 3.98715C138.094 3.48617 137.432 3.21763 136.751 3.25469C135.853 3.18181 135.006 3.67963 134.632 4.49953H134.524V0.670044ZM147.142 8.45573C146.757 9.76653 145.489 10.6135 144.131 10.4662C143.204 10.4906 142.314 10.1065 141.695 9.41582C141.077 8.7251 140.794 7.79758 140.921 6.87934C140.797 5.95854 141.08 5.02953 141.694 4.33298C142.309 3.63642 143.196 3.24087 144.125 3.24879C146.058 3.24879 147.225 4.56981 147.225 6.75196V7.2305H142.318V7.30736C142.274 7.82302 142.45 8.33307 142.803 8.71208C143.155 9.09109 143.651 9.30389 144.168 9.29814C144.839 9.37869 145.492 9.04587 145.822 8.45569L147.142 8.45573ZM145.826 6.21615H142.316C142.31 5.73696 142.497 5.27556 142.836 4.93662C143.175 4.59768 143.636 4.40993 144.115 4.41595C144.588 4.40511 145.043 4.59443 145.369 4.93726C145.695 5.28008 145.861 5.74453 145.826 6.21615Z" fill="currentColor"/><path fill-rule="evenodd" clip-rule="evenodd" d="M21.198 1.10718C21.3474 3.0582 20.7304 4.99062 19.478 6.49406C18.2629 8.00531 16.4219 8.87578 14.4828 8.85582C14.3595 6.96096 14.9945 5.0948 16.2479 3.66837C17.5172 2.2226 19.2846 1.30814 21.198 1.10718ZM27.3297 12.571C25.0992 13.9422 23.7267 16.3605 23.693 18.9786C23.6961 21.9407 25.47 24.6138 28.1981 25.7676C27.6734 27.472 26.8825 29.0827 25.8548 30.5401C24.4745 32.6048 23.0273 34.622 20.7304 34.6593C19.638 34.6845 18.9006 34.3703 18.1322 34.043C17.3307 33.7016 16.4955 33.3458 15.1886 33.3458C13.8025 33.3458 12.93 33.713 12.0884 34.0672C11.3611 34.3733 10.657 34.6696 9.66471 34.7108C7.47723 34.7918 5.80546 32.5071 4.37503 30.4618C1.51599 26.2848 -0.710277 18.6904 2.27436 13.523C3.6759 11.0044 6.29643 9.40626 9.17718 9.31319C10.4178 9.28766 11.6083 9.76584 12.652 10.1851C13.4503 10.5057 14.1626 10.7918 14.746 10.7918C15.2588 10.7918 15.9513 10.517 16.7583 10.1967C18.0296 9.69213 19.5852 9.07475 21.1704 9.24114C23.6336 9.3182 25.9162 10.5522 27.3297 12.571Z" fill="currentColor"/></svg>