<svg class="sc-hBEYId boILNX" viewBox="0 0 104 142" xmlns="http://www.w3.org/2000/svg"><path d="M61.552 29.368a19.016 19.016 0 015.434-7.919c4.299-3.511 10.29-4.245 15.804-3.613 5.515.632 11.152 2.716 14.61 7.03 2.865 3.592 3.904 8.299 4.366 12.904.387 3.87.414 7.864-.856 11.545-2.608 7.607-10.411 12.504-18.337 13.849-18.073 3.029-26.637-19.431-21.02-33.796z" fill="#F9A725" stroke="#F9A725" stroke-width="3" stroke-linecap="round" stroke-linejoin="round"/><path d="M7.408 39.936a26.929 26.929 0 01-5.08-20.375C3.15 14.38 5.608 9.3 9.798 6.154c3.627-2.716 8.246-3.776 12.769-4.075 3.31-.3 6.647.052 9.82 1.04 6.154 2.098 10.752 7.47 13.326 13.447 3.03 7.03 3.539 15.356.245 22.263-7.593 15.968-28.9 13.679-38.55 1.107z" fill="#68366E" stroke="#68366E" stroke-width="3" stroke-linecap="round" stroke-linejoin="round"/><path d="M72.832 63.585a14.711 14.711 0 00-3.294 3.776 2.77 2.77 0 00-.503 1.358c0 1.243 1.359 2.038 2.554 2.296 1.44.332 2.93.38 4.387.143a15.974 15.974 0 00-.862-7.342c-.089-.245-.279-.544-.537-.469-.258.075.123.523.143.258" fill="#F9A725"/><path d="M72.832 63.585a14.711 14.711 0 00-3.294 3.776 2.77 2.77 0 00-.503 1.358c0 1.243 1.359 2.038 2.554 2.296 1.44.332 2.93.38 4.387.143a15.974 15.974 0 00-.862-7.342c-.089-.245-.279-.544-.537-.469-.258.075.123.523.143.258" stroke="#F9A725" stroke-width="3" stroke-linecap="round" stroke-linejoin="round"/><path d="M76.547 140.291a54.335 54.335 0 001.189-27.242c-1.046-4.863-2.771-9.624-2.988-14.589-.258-5.745 1.507-11.355 2.648-16.979 1.141-5.623 1.59-11.784-1.073-16.877l-5.997-1.182" stroke="#323130" stroke-width="3" stroke-linecap="round" stroke-linejoin="round"/><path d="M26.385 51.32c-.204 2.383-.808 5.351-.618 7.735a1.12 1.12 0 00.306.822 1.107 1.107 0 00.849.108c.76-.108 2.716-.217 3.463-.326 1.1-.156 2.48-.597 2.534-1.704 0-.605-1.454-5.366-3.267-6.636" fill="#68366E"/><path d="M26.385 51.32c-.204 2.383-.808 5.351-.618 7.735a1.12 1.12 0 00.306.822 1.107 1.107 0 00.849.108c.76-.108 2.716-.217 3.463-.326 1.1-.156 2.48-.597 2.534-1.704 0-.605-1.454-5.366-3.267-6.636" stroke="#68366E" stroke-width="3" stroke-linecap="round" stroke-linejoin="round"/><path d="M29.324 51.971c7.851 25.55-4.55 52.174 2.262 78.024M24.17 52.222l8.74-.502" stroke="#323130" stroke-width="3" stroke-linecap="round" stroke-linejoin="round"/></svg>