<svg xmlns="http://www.w3.org/2000/svg" class="sc-hBEYId frBwNn" viewBox="0 0 24 24"><path d="M17.75 3.446c1.795 0 3.25 1.47 3.25 3.282v11.615c0 1.812-1.455 3.282-3.25 3.282H6.25c-1.795 0-3.25-1.47-3.25-3.282V6.728c0-1.813 1.455-3.282 3.25-3.282h11.5zm.58 16.564l-5.805-5.743a.745.745 0 00-.966-.071l-.084.071-5.807 5.743c.182.065.378.1.582.1h11.5c.203 0 .399-.035.58-.1l-5.805-5.743 5.806 5.743zm-.58-15.05H6.25c-.966 0-1.75.792-1.75 1.768v11.615c0 .21.036.412.103.6l5.823-5.758a2.234 2.234 0 013.02-.118l.128.118 5.822 5.758c.067-.187.104-.39.104-.6V6.728c0-.976-.784-1.767-1.75-1.767zm-2.498 2.02a2.263 2.263 0 012.252 2.275 2.263 2.263 0 01-2.252 2.275A2.263 2.263 0 0113 9.255a2.263 2.263 0 012.252-2.274zm0 1.516a.756.756 0 00-.752.76c0 .419.337.759.752.759s.752-.34.752-.76-.337-.76-.752-.76z" fill="currentColor"/></svg>