<svg xmlns="http://www.w3.org/2000/svg" class="sc-hBEYId frBwNn" viewBox="0 0 24 24"><path d="M11.375 7.628a.625.625 0 111.25 0V8.88a.625.625 0 11-1.25 0V7.628zM15.563 8.804a.625.625 0 00-.884 0l-.885.885a.625.625 0 00.884.884l.885-.885a.625.625 0 000-.884zM9.315 8.804a.625.625 0 10-.884.884l.885.885a.625.625 0 00.884-.884l-.885-.885z" fill="currentColor"/><path d="M12 2c4.142 0 7.5 3.246 7.5 7.25 0 2.097-.932 4.02-2.755 5.743a.749.749 0 00-.181.265l-.033.102-1.17 4.896c-.23.964-1.082 1.663-2.088 1.737l-.18.007h-2.186c-1.024 0-1.92-.645-2.221-1.577l-.047-.167L7.47 15.36a.744.744 0 00-.214-.368c-1.737-1.64-2.665-3.464-2.75-5.444L4.5 9.25l.004-.24C4.634 5.118 7.941 2 12 2zM9.444 18.25l.398 1.668.033.12c.121.374.47.652.89.703l.142.009h2.14l.133-.003a1.07 1.07 0 00.927-.657l.039-.124.41-1.716H9.444zM12 3.25c-3.29 0-5.985 2.441-6.231 5.517l-.015.265-.004.192.005.272c.07 1.63.842 3.155 2.36 4.588.235.222.412.497.517.8l.054.186.459 1.93h2.23v-5.629a.625.625 0 011.25 0V17h2.231l.484-2.019.064-.188c.107-.268.272-.51.483-.709 1.591-1.503 2.363-3.108 2.363-4.833 0-3.305-2.789-6.001-6.25-6.001z" fill="currentColor"/></svg>