<svg xmlns="http://www.w3.org/2000/svg" class="sc-hBEYId frBwNn" viewBox="0 0 24 24"><path fill-rule="evenodd" clip-rule="evenodd" d="M6.384 21.765s5.164-3.134 5.59-3.134c.426 0 5.612 3.127 5.612 3.127 1.214.618 2.414.007 2.414-1.463V6.249C20 3.432 18.048 2 14.986 2H9.014C5.91 2 4 3.496 4 6.426v13.869c0 1.47 1.2 2.081 2.384 1.47zm11.92-1.326c.078.036.136.05.174.055a.77.77 0 00.022-.2V6.25c0-1.033-.34-1.637-.807-2.018-.513-.42-1.385-.731-2.707-.731H9.014c-1.334 0-2.192.323-2.696.754-.467.4-.818 1.052-.818 2.172v13.869c0 .096.011.16.022.2a.583.583 0 00.14-.046l.004-.003.166-.1a215.86 215.86 0 012.432-1.444 73.483 73.483 0 011.944-1.102c.28-.151.545-.289.764-.392.108-.05.227-.103.342-.147l.008-.003a1.89 1.89 0 01.652-.127c.317 0 .59.103.65.127l.008.002c.115.043.234.096.342.147.22.102.485.24.766.39.568.305 1.273.706 1.952 1.1a186.394 186.394 0 012.442 1.44l.167.1.003.002z" fill="currentColor"></path></svg>