<svg class="sc-hBEYId fZZDuI" viewBox="0 0 1014 86" xmlns="http://www.w3.org/2000/svg"><path d="M927.56 67.845a1543.071 1543.071 0 002.277-61.82c.032-1.703-.456-3.989-2.167-4.025a2.512 2.512 0 00-1.498.57c-2.445 1.798-2.864 5.221-3.078 8.25-.638 9.105-1.717 42.379-1.717 57.526m79.443.01s.03-42.207.61-63.547c-.03-.71.2-1.408.65-1.958.66-.664 1.76-.614 2.61-.25 3.31 1.42 3.58 4.685 3.58 9.484s0 32.112-1.3 56.061m-76.838-53.862a516.662 516.662 0 0069.424 1.89m-69.901 14.91c23.015 1.635 48.125 2.136 71.185 1.498m-72.173 25.62c23.452-.828 48.717-.82 72.173 0M929.65 45.71c23.061-.82 48.166-.455 71.19 1.02m-64.729-33.861l-.187 6.401m4.581-6.765l-.333 7.134m5.053-6.766a74.83 74.83 0 00-.246 6.375m19.419-6.26a47.323 47.323 0 00.087 6.164m16.65-5.541l-.2 4.917m4.375-5.409l-.187 5.92m10.951 10.544v4.922m-4.399-5.66a23.04 23.04 0 00-.187 6.402m-4.539-6.033v5.664m-4.398-5.91a56.644 56.644 0 00-.25 6.151m-4.403-5.782v5.414m-42.835.009c-.045-1.82.087-3.639.397-5.432m4.257 5.678l.319-5.92m-6.297 18.4c-.078-1.4-.055-2.803.068-4.199m9.383 6.124c-.083-2.39.07-4.783.456-7.143m4.739 6.296l.592-5.45m8.255 5.059c-.124-1.56-.036-3.13.259-4.667m22.123 5.532c-.055-2.145.124-4.29.533-6.397m4.416 6.524a58.12 58.12 0 01.082-6.651m10.199 6.415l-.086-6.179m-.592 18.449l.41-6.406m-5.282 6.155l.715-5.918m-6.943 5.928l.605-5.92m-5.577 6.038l.387-6.16m-16.068 5.914a38.1 38.1 0 01.091-5.673m-29.79 5.669l.455-5.664m3.338 5.682l.35-5.309m-18.558 13.022h91.401a2.3 2.3 0 012.3 2.299v7.216a2.3 2.3 0 01-2.3 2.3h-91.401a2.299 2.299 0 01-2.299-2.3v-7.216c0-1.27 1.029-2.3 2.299-2.3zM79.226 51.193c5.701-14.837 2.44-32.367-7.464-44.815-.633-.796-1.053-1.346-2.035-1.614-2.066-.567-4.193-.275-6.31-.005a792.453 792.453 0 00-61.12 10.68C5.543 37.517 8.97 61.29 12.2 83.34c14.64-.056 29.484-.164 44.122-.215 11.916-.044 23.859-.09 35.714-1.293 14.201-1.448 30.859-6.057 44.587-9.89M12.608 82.544c7.034-9.224 17.876-14.649 28.605-19.05a263.876 263.876 0 0156.691-16.116c4.308-.708 8.623-1.326 12.97-1.131 9.015.404 17.489 4.218 25.698 7.97.818 6.028.354 11.617.064 17.696m-.036-17.684a305.194 305.194 0 01-52.892 13.7m-54.822 1.323a54.461 54.461 0 0126.516-5.91c8.978.334 17.826 2.205 26.614 4.063.908.196 1.891.431 2.468 1.156.422.66.645 1.425.645 2.207l.977 10.617m8.672-7.784s21.756-6.472 32.013-9.025a61.836 61.836 0 013.286-.734M81.11 50.74c8.243-1.359 17.99-.156 25.073 4.265m-17.37 3.105c-2.386-2.033-5.516-3.031-8.633-3.357-3.118-.325-6.27-.02-9.392.278l-5.883.575a50.786 50.786 0 00-10.134 2.76M25.875 77.81a73.193 73.193 0 0150.894-5.141m-23.435 4.254a147.372 147.372 0 0127.583.313m-67 3.68c6.84-8.43 11.655-22.44 10.265-33.21-1.39-10.77-6.236-20.86-12.345-29.78a45.44 45.44 0 00-3.256-3.8m7.242 50.905a65.752 65.752 0 00-3.59-33.903m49.315 20.33a41.509 41.509 0 00-2.086-29.401m-9.011 2.097c2.737 3.079 3.193 7.536 3.175 11.66a73.666 73.666 0 01-2.479 18.575M39.994 26.873a44.412 44.412 0 012.604 6.12c2.448 7.733.793 16.102-.883 24.043" stroke="currentColor" stroke-width="3" stroke-linecap="round" stroke-linejoin="round"/><path d="M1011.5 81c-135 2-360-5.5-483-5.5S57.84 84.001 12 84.001" stroke="currentColor" stroke-width="3" stroke-linecap="round" stroke-linejoin="round"/></svg>