<svg xmlns="http://www.w3.org/2000/svg" class="sc-hBEYId bXFCCw" viewBox="0 0 24 24"><path d="M17.5 12a5.5 5.5 0 110 11 5.5 5.5 0 010-11zM12 2C17.523 1.999 22 6.477 22 12.001c0 .263-.01.524-.03.782a6.51 6.51 0 00-1.474-1.052 8.502 8.502 0 10-8.766 8.767 6.5 6.5 0 001.051 1.474c-.258.02-.519.03-.782.03-5.524 0-10.002-4.478-10.002-10.001C1.998 6.477 6.476 1.999 12 1.999zm5.5 12l-.09.008a.5.5 0 00-.402.402L17 14.5V17L14.496 17l-.09.008a.5.5 0 00-.402.402l-.008.09.008.09a.5.5 0 00.402.402l.09.008H17v2.503l.009.09a.5.5 0 00.402.402l.09.008.09-.008a.5.5 0 00.402-.402l.008-.09V18l2.503.001.09-.008a.5.5 0 00.402-.402l.008-.09-.008-.09a.5.5 0 00-.402-.402l-.09-.008H18v-2.5l-.008-.09a.5.5 0 00-.401-.403L17.5 14zm-9.039.785a4.494 4.494 0 002.63 1.626 6.449 6.449 0 00-.078 1.51 5.983 5.983 0 01-3.73-2.208.75.75 0 011.178-.928zM9 8.75a1.25 1.25 0 110 2.499A1.25 1.25 0 019 8.75zm6 0a1.25 1.25 0 110 2.499 1.25 1.25 0 010-2.499z" fill="currentColor"></path></svg>