<svg xmlns="http://www.w3.org/2000/svg" class="sc-hBEYId dPDaHU" viewBox="0 0 68 103"><path d="M44.358 8.621a.925.925 0 00-.033-1.85l.016.925-.016-.925-.125.002a178.543 178.543 0 00-1.486.035c-.904.024-2.025.06-2.86.11a.925.925 0 00.109 1.847c.803-.047 1.899-.083 2.801-.107a204.981 204.981 0 011.472-.034l.122-.003zM13.51 7.293a.925.925 0 011.036.8l.293 2.266a.925.925 0 11-1.836.238l-.293-2.268a.925.925 0 01.8-1.036zM11.927 9.264a.925.925 0 10-1.836.238l.188 1.447a.925.925 0 001.836-.239l-.188-1.446zM9.277 10.158a.925.925 0 10-1.835.238l.117.904a.925.925 0 001.835-.238l-.117-.904z" fill="currentColor"></path><path fill-rule="evenodd" clip-rule="evenodd" d="M44.493 85.518c-1.84 0-3.393 1.417-3.393 3.239 0 1.821 1.553 3.239 3.393 3.239 1.84 0 3.393-1.418 3.393-3.24 0-1.82-1.553-3.238-3.393-3.238zm-2.16 3.239c0-1.075.934-2.005 2.16-2.005s2.16.93 2.16 2.005c0 1.074-.934 2.005-2.16 2.005s-2.16-.93-2.16-2.005z" fill="currentColor"></path><path fill-rule="evenodd" clip-rule="evenodd" d="M46.92 2.148c.716.245 1.4.547 1.909.925l.001.001c1.925 1.435 3.378 4.262 4.446 7.138 1.086 2.928 1.845 6.116 2.28 8.488 1.243 6.679 2.634 13.328 4.032 19.987l.173.826c1.341 6.381 2.684 12.773 3.901 19.19l.305 1.6.01.055c.978 5.117 1.983 10.373 2.45 15.598.05.563.112 1.159.178 1.78.262 2.496.565 5.38.28 8.002-.364 3.338-1.704 6.497-5.4 8.091-3.38 1.458-11.016 4.29-13.669 5.002-7.227 1.937-15.761 3.757-23.682 2.885-3.65-.405-6.55-2.91-8.295-5.577l-.004-.006a16.417 16.417 0 01-2.17-5.116l-.002-.007c-.153-.676-.368-1.683-.622-2.936 0-.006-.002-.011-.003-.017L8.741 64.648v-.007c-.794-4.512-1.522-8.697-2.051-11.739l-.002-.008-.443-2.548C3.617 35.274 1.663 20.72 1.042 12.872c-.17-2.12.18-3.85.984-5.246.803-1.396 2.011-2.372 3.41-3.067 2.743-1.364 6.4-1.725 9.69-2.013h.002c1.27-.11 2.506-.22 3.721-.327C25.985 1.587 32.346 1.024 39.881 1c1.225-.003 2.992.185 4.651.52a19.49 19.49 0 012.388.628zm-7.033.703c1.073-.003 2.712.167 4.278.484.78.158 1.524.348 2.157.565.647.22 1.12.45 1.403.66 1.456 1.085 2.758 3.446 3.816 6.296 1.038 2.799 1.773 5.877 2.196 8.18v.002c1.247 6.703 2.642 13.372 4.04 20.03l.172.819c1.342 6.386 2.681 12.762 3.895 19.162l.314 1.649c.98 5.132 1.967 10.295 2.425 15.423.056.623.122 1.261.19 1.909v.002c.26 2.481.534 5.102.272 7.506-.323 2.968-1.438 5.36-4.293 6.592-3.344 1.442-10.886 4.235-13.415 4.913-7.202 1.93-15.448 3.664-23 2.833-2.913-.323-5.385-2.362-6.947-4.747a14.567 14.567 0 01-1.923-4.532c-.149-.655-.359-1.643-.61-2.882L10.563 64.32v-.004c-.793-4.51-1.52-8.69-2.05-11.731l-.002-.012-.443-2.546C5.445 34.983 3.5 20.492 2.888 12.726v-.002c-.149-1.833.164-3.171.742-4.175S5.1 6.792 6.26 6.216c2.372-1.18 5.656-1.531 9.027-1.826 1.277-.11 2.52-.22 3.736-.328 7.136-.632 13.414-1.188 20.864-1.211z" fill="currentColor"></path><path d="M61.485 93.83c3.696-1.595 5.037-4.754 5.4-8.091.285-2.623-.018-5.507-.28-8.004-.066-.62-.128-1.216-.179-1.779-.466-5.225-1.47-10.481-2.449-15.599l-.01-.054-.305-1.6c-1.217-6.417-2.56-12.809-3.9-19.19l-.174-.826C58.19 32.028 56.8 25.38 55.557 18.7c-.436-2.372-1.195-5.56-2.281-8.488-1.068-2.876-2.521-5.703-4.446-7.138h-.001c-.51-.379-1.193-.681-1.909-.926a19.49 19.49 0 00-2.388-.627c-1.66-.336-3.426-.524-4.651-.521-7.535.024-13.896.587-21.032 1.22-1.215.107-2.452.216-3.721.326h-.002c-3.29.288-6.947.649-9.69 2.013-1.399.695-2.607 1.671-3.41 3.067-.804 1.396-1.155 3.127-.984 5.246.62 7.848 2.575 22.402 5.203 37.474l.443 2.548.002.008c.529 3.042 1.257 7.227 2.05 11.74l.001.006 4.297 23.41a137.534 137.534 0 00.625 2.953l.002.006a16.417 16.417 0 002.17 5.116l.004.006c1.745 2.666 4.646 5.172 8.295 5.577h0c7.92.872 16.455-.948 23.682-2.885 2.653-.711 10.288-3.544 13.669-5.002zm0 0l-.367-.85M44.325 6.77a.925.925 0 01.033 1.85l-.122.003a180.403 180.403 0 00-1.472.034c-.902.024-1.998.06-2.801.107a.925.925 0 01-.108-1.848c.834-.048 1.955-.085 2.86-.11a207.597 207.597 0 011.485-.034l.125-.002zm0 0l.016.925-.016-.925zm-.16-3.436c-1.566-.317-3.205-.487-4.278-.484-7.45.023-13.728.58-20.864 1.211-1.217.108-2.459.218-3.736.328-3.371.295-6.655.646-9.027 1.826-1.16.576-2.052 1.329-2.63 2.333-.578 1.004-.89 2.342-.743 4.175v.002c.614 7.766 2.558 22.257 5.18 37.302l.444 2.546.002.012c.53 3.04 1.257 7.222 2.05 11.731v.004l4.294 23.394c.251 1.24.462 2.227.61 2.882a14.567 14.567 0 001.923 4.532c1.562 2.385 4.034 4.424 6.948 4.747 7.551.831 15.797-.903 23-2.833 2.528-.678 10.07-3.471 13.414-4.913 2.855-1.231 3.97-3.624 4.293-6.592.262-2.404-.012-5.025-.272-7.506v-.002c-.068-.648-.134-1.286-.19-1.908h0c-.458-5.129-1.444-10.292-2.425-15.424l-.314-1.65c-1.214-6.4-2.553-12.775-3.895-19.161l-.172-.82c-1.398-6.657-2.793-13.326-4.04-20.029v-.002c-.423-2.303-1.158-5.381-2.197-8.18-1.057-2.85-2.36-5.211-3.815-6.297-.282-.21-.756-.438-1.403-.66a17.666 17.666 0 00-2.157-.564zm-29.62 4.757a.925.925 0 10-1.835.237l.293 2.268a.925.925 0 101.836-.238l-.293-2.267zm-3.655.373a.925.925 0 011.037.799l.188 1.447a.925.925 0 01-1.836.238l-.188-1.447a.925.925 0 01.799-1.037zm-2.65.894a.925.925 0 011.037.8l.117.903a.925.925 0 01-1.835.238l-.117-.904A.925.925 0 018.24 9.36zm36.253 77.393c-1.226 0-2.16.93-2.16 2.005 0 1.074.934 2.005 2.16 2.005s2.16-.93 2.16-2.005c0-1.075-.934-2.005-2.16-2.005zM41.1 88.757c0-1.822 1.553-3.239 3.393-3.239 1.84 0 3.393 1.417 3.393 3.239 0 1.821-1.553 3.239-3.393 3.239-1.84 0-3.393-1.418-3.393-3.24z" stroke="#000"></path></svg>