<svg class="sc-hBEYId cDAZXd" viewBox="0 0 111 116" xmlns="http://www.w3.org/2000/svg"><path d="M67.217 1.62a50.12 50.12 0 018.427-.64 26.766 26.766 0 00-9.085 6.258 14.095 14.095 0 01-1.965-1.136c-1.181-.802-2.34-2.018-2.18-3.441 1.576-.453 3.18-.8 4.803-1.041z" fill="#FF3E2F"></path><path d="M75.618 1.446l-.443 7.446a18.853 18.853 0 01-8.62-1.65A26.765 26.765 0 0175.64.984c-.004.155-.016.291-.023.462zM86.355 6.473c-.91.408-1.85.746-2.813 1.01a32.425 32.425 0 01-8.366 1.409l.443-7.447a21.704 21.704 0 0110.736 5.028z" fill="#FF3E2F"></path><path d="M75.646.98c4.609.004 9.179.843 13.489 2.475-.322 1.47-1.424 2.374-2.775 3.03a21.704 21.704 0 00-10.737-5.029c0-.155 0-.306.026-.461l-.003-.016z" fill="#FF3E2F"></path><path d="M64.59 6.121c.624.431 1.281.811 1.965 1.136a26.452 26.452 0 00-4.448 6.258 30.835 30.835 0 00-2.87 8.81c-.942 1.806-4.296 1.802-6.25 1.234a9.95 9.95 0 01-6.667-6.724 45.208 45.208 0 014.479-6.152c2.048-2.38 4.346-4.6 7.087-6.136a21.65 21.65 0 014.509-1.867c-.129 1.424 1.007 2.639 2.196 3.441z" fill="#F87D21"></path><path d="M75.175 8.892L74.096 27.09a12.845 12.845 0 01-.791-.47 10.43 10.43 0 01-14.05-4.304 30.833 30.833 0 012.855-8.825 26.45 26.45 0 014.449-6.258 18.853 18.853 0 008.616 1.659zM94.692 21.537c.071.268.14.537.205.806a15.9 15.9 0 01-20.8 4.748l1.08-18.198a32.426 32.426 0 008.366-1.409 19.58 19.58 0 002.813-1.01 20.558 20.558 0 012.737 2.907c2.749 3.555 4.449 7.814 5.6 12.156z" fill="#F87D21"></path><path d="M105.535 18.504a8.121 8.121 0 01-4.657 4.642 6.886 6.886 0 01-5.974-.814c-.066-.27-.134-.54-.204-.807-1.136-4.342-2.851-8.601-5.6-12.156a20.55 20.55 0 00-2.737-2.907c1.352-.64 2.454-1.545 2.775-3.03a30.464 30.464 0 014.967 2.492c4.854 3.059 8.73 7.507 11.43 12.58z" fill="#F87D21"></path><path d="M59.995 47.526a8.665 8.665 0 01-.379-.518c-2.854 2.298-7.015 2.559-10.415 1.2-3.4-1.36-5.974-5.07-7.571-8.363-.599-4.128-.47-8.33.378-12.414a35.208 35.208 0 014.335-10.6 9.95 9.95 0 006.667 6.724c1.953.567 5.3.571 6.25-1.235-1.086 6.255-.628 12.906.034 19.308.2 1.966.433 3.932.7 5.898z" fill="#FADD4F"></path><path d="M74.098 27.091c-.47 7.89-.938 15.778-1.405 23.665a6.427 6.427 0 01-.44-.299c-4.103 1.969-9.486.64-12.276-2.93-.253-1.969-.482-3.94-.69-5.913-.662-6.383-1.135-13.035-.034-19.308a10.43 10.43 0 0014.053 4.335c.258.147.523.303.792.45zM94.896 22.343c1.858 7.507 2.093 15.692-.735 22.98-.28.721-.566 1.445-.86 2.169a5.047 5.047 0 00-.688.916c-1.291 1.93-4.267 3.074-6.538 3.551-2.272.477-4.615.36-6.932.239-2.222-.114-4.585-.273-6.436-1.443.47-7.884.938-15.773 1.405-23.665a15.9 15.9 0 0020.799-4.747h-.015z" fill="#FADD4F"></path><path d="M93.31 47.492c.29-.722.577-1.445.86-2.169 2.828-7.288 2.593-15.473.734-22.98a6.886 6.886 0 005.974.814 8.116 8.116 0 004.657-4.641 37.098 37.098 0 011.775 3.838 26.282 26.282 0 012.011 8.765c.121 3.589-.757 7.14-1.791 10.581-.29.967-.611 1.92-.962 2.862-3.123 3.135-7.162 3.786-11.467 2.741a2.397 2.397 0 00-1.34-.083c-.167.06-.32.152-.45.272z" fill="#FADD4F"></path><path d="M63.758 71.078a7.493 7.493 0 01-1.136-.931c-4.403 1.196-8.404-1.136-11.282-4.66-2.828-5.126-5.497-10.343-7.397-15.867a50.348 50.348 0 01-2.347-9.77c1.601 3.293 4.164 7.003 7.571 8.362 3.408 1.36 7.572 1.098 10.415-1.2.121.178.246.352.379.519 1.033 7.882 2.4 15.718 3.797 23.547z" fill="#2781D3"></path><path d="M72.693 50.755c-.36 6.042-.72 12.082-1.075 18.12-.06 1.044-.125 2.093-.186 3.138a8.507 8.507 0 01-7.674-.936c-1.397-7.829-2.763-15.665-3.785-23.551 2.79 3.57 8.173 4.899 12.277 2.93.148.106.295.208.443.3z" fill="#2781D3"></path><path d="M92.613 48.408c.194-.33.426-.638.69-.916-2.81 6.958-6.08 13.758-9.37 20.508l-1.114 2.29c-.094.01-.188.026-.28.05a4.08 4.08 0 00-1.052.54 10.252 10.252 0 01-9.158.724c-.29.156-.59.293-.897.409.06-1.045.125-2.094.185-3.139l1.075-18.119c1.867 1.17 4.23 1.33 6.436 1.443 2.317.12 4.664.238 6.932-.239 2.268-.477 5.262-1.62 6.553-3.55z" fill="#2781D3"></path><path d="M106.561 44.55c-2.567 6.982-6.561 13.455-10.533 19.713-.461.727-.927 1.45-1.397 2.17-2.691 2.65-7.193 3.982-10.978 3.846a5.312 5.312 0 00-.852 0l1.113-2.29c3.29-6.75 6.56-13.55 9.37-20.508.131-.125.287-.222.458-.284.445-.1.91-.072 1.34.083 4.323 1.049 8.363.405 11.479-2.73z" fill="#2781D3"></path><path d="M94.631 66.44a184.604 184.604 0 01-14.007 18.717c-1.326-.053-2.7-.113-4.1-.181.757-2.124 1.608-4.26 2.574-6.573 1.136-2.744 2.415-5.436 3.71-8.113.283-.022.568-.022.852 0 3.782.133 8.28-1.196 10.971-3.85z" fill="#68366E"></path><path d="M81.486 70.882c.322-.231.677-.413 1.052-.542.092-.023.186-.04.28-.049-1.294 2.677-2.563 5.368-3.71 8.113-.965 2.313-1.824 4.448-2.574 6.572a714.4 714.4 0 01-5.807-.306c.136-2.817.283-5.592.442-8.265l.262-4.391c.308-.117.607-.253.897-.41a10.253 10.253 0 009.158-.722z" fill="#68366E"></path><path d="M71.431 72.013l-.26 4.391a751.703 751.703 0 00-.444 8.265l-4.634-.276c-.026-.148-.049-.3-.075-.45-.727-4.294-1.515-8.58-2.272-12.873a8.506 8.506 0 007.685.943z" fill="#68366E"></path><path d="M66.019 83.942c.026.152.049.303.075.45l-4.312-.264c-1.097-1.746-2.029-3.718-3.028-5.512l-4.922-8.75a497.096 497.096 0 01-2.45-4.38c2.878 3.54 6.88 5.857 11.283 4.66.347.347.727.66 1.135.932.739 4.285 1.496 8.563 2.219 12.864z" fill="#68366E"></path><path d="M58.742 78.614L53.82 69.86c-3.691-6.546-7.405-13.14-9.843-20.25-2.438-7.11-3.57-14.841-1.957-22.182 1.37-6.224 4.656-11.917 8.813-16.748 2.048-2.381 4.346-4.6 7.087-6.137 2.855-1.605 6.088-2.412 9.317-2.926 9.158-1.466 19.016-.587 26.88 4.327 6.057 3.786 10.577 9.76 13.208 16.396a26.153 26.153 0 012.01 8.764c.122 3.59-.757 7.14-1.79 10.582-2.446 8.086-6.981 15.465-11.494 22.575a185.713 185.713 0 01-15.4 20.893c-5.978-.234-12.873-.658-18.85-1.03-1.113-1.745-2.049-3.728-3.06-5.511zM80.635 85.155c-3.12 3.823-4.411 12.872-4.922 18.452" stroke="#323130" stroke-width="1.514" stroke-linecap="round" stroke-linejoin="round"></path><path d="M69.918 104.065c.314-8.847.727-18.827 1.253-27.663A318180.326 318180.326 0 0075.646.981a26.906 26.906 0 00-13.538 12.516c-4.339 8.514-3.786 18.607-2.82 28.113 1.472 14.216 4.346 28.235 6.73 42.33 1.163 6.852.985 12.796 1.136 19.743" stroke="#323130" stroke-width="1.514" stroke-linecap="round" stroke-linejoin="round"></path><path d="M75.054 1.357a21.443 21.443 0 0114.041 8.022c2.745 3.55 4.445 7.814 5.596 12.156 2.048 7.723 2.4 16.234-.53 23.786-2.99 7.716-6.599 15.223-10.222 22.677-1.673 3.434-3.35 6.876-4.823 10.4-3.438 8.23-5.527 14.246-6.114 25.286" stroke="#323130" stroke-width="1.514" stroke-linecap="round" stroke-linejoin="round"></path><path d="M62.41 2.677c-.16 1.42.999 2.65 2.18 3.442 5.417 3.687 12.675 3.233 18.955 1.362 2.385-.707 5.05-1.593 5.588-4.024M46.328 16.814a9.945 9.945 0 006.674 6.738c1.962.572 5.3.576 6.255-1.238a10.43 10.43 0 0014.049 4.324 15.9 15.9 0 0021.579-4.29 6.888 6.888 0 005.974.814 8.116 8.116 0 004.657-4.641M41.603 39.829c1.598 3.297 4.165 7.015 7.572 8.378 3.407 1.362 7.572 1.097 10.419-1.2 2.65 3.956 8.359 5.508 12.656 3.445 1.923 1.446 4.486 1.624 6.886 1.745 2.317.121 4.664.238 6.932-.239 2.268-.477 5.25-1.62 6.538-3.55.314-.47.613-1.015 1.136-1.2.445-.102.91-.073 1.34.083 4.305 1.033 8.329.378 11.467-2.741M51.352 65.48c2.877 3.544 6.882 5.86 11.289 4.665a8.386 8.386 0 009.688 1.457 10.25 10.25 0 009.158-.723c.323-.231.68-.414 1.056-.541a3.742 3.742 0 011.136-.053c3.785.136 8.275-1.2 10.978-3.854M77.171 104.016l-.617 10.187a.95.95 0 01-.132.515.974.974 0 01-.878.231c-4.157-.318-8.33-.38-12.494-.185a2.65 2.65 0 01-1.136-.451s-.378-6.704-.541-9.956c1.272-.265 15.76-.11 15.798-.341zM61.785 84.126c.886 2.65 2.336 8.131 2.336 19.939M59.424 110.641l-.004-1.738M78.514 110.638l.23-1.73M65.662 108.869l.326 1.81M72.276 108.908l-.053 1.734M1 45.477l10.979-1.927c3.282-.58 6.587-1.159 9.722-2.298 3.134-1.14 6.118-2.885 8.253-5.444M13.115 51.704l19.342-2.017M21.781 61.467a53.33 53.33 0 0117.067-.022" stroke="#323130" stroke-width="1.514" stroke-linecap="round" stroke-linejoin="round"></path></svg>