<svg xmlns="http://www.w3.org/2000/svg" class="sc-hBEYId glwjuX" viewBox="0 0 24 24"><path d="M7.25 4.5h3.499a.75.75 0 01.101 1.493L10.75 6h-3.5a2.249 2.249 0 00-2.242 2.06l-.008.16.003 8.53A2.25 2.25 0 007.1 18.994l.154.006 8.498-.012a2.25 2.25 0 002.242-2.096l.005-.154v-3.506a.75.75 0 011.493-.102l.007.102v3.506a3.75 3.75 0 01-3.546 3.745l-.199.005-8.496.012-.203-.006a3.75 3.75 0 01-3.547-3.544l-.005-.2L3.5 8.253l.004-.202A3.75 3.75 0 017.05 4.505l.2-.005h3.499-3.5zM13.746 3h6.554l.1.014.1.028.057.025a.704.704 0 01.152.09l.07.063.083.099.054.09.04.09.018.064.014.064.01.094v6.533a.75.75 0 01-1.493.102l-.007-.102-.001-4.694-7.22 7.223a.75.75 0 01-.976.073l-.084-.073a.75.75 0 01-.073-.976l.073-.084L18.436 4.5h-4.689a.75.75 0 01-.743-.648l-.007-.102a.75.75 0 01.649-.743L13.747 3z" fill="currentColor"></path></svg>