<svg xmlns="http://www.w3.org/2000/svg" class="sc-hBEYId fOFRjn" viewBox="0 0 24 24"><path d="M21 6.677a7.923 7.923 0 01-2.124.55 3.586 3.586 0 001.629-1.951 7.6 7.6 0 01-2.349.86 3.743 3.743 0 00-2.097-1.087 3.84 3.84 0 00-2.355.367 3.596 3.596 0 00-1.627 1.666 3.381 3.381 0 00-.221 2.27A10.86 10.86 0 017.643 8.28 10.401 10.401 0 014.25 5.663a3.455 3.455 0 00-.495 1.78c-.001.58.148 1.15.434 1.662.285.512.7.948 1.204 1.27a3.777 3.777 0 01-1.674-.439v.043c.004.813.302 1.599.844 2.226a3.725 3.725 0 002.126 1.214 3.687 3.687 0 01-.99.146 4.607 4.607 0 01-.693-.06c.238.699.697 1.31 1.315 1.747.618.438 1.363.68 2.132.695A7.62 7.62 0 013 17.409a10.77 10.77 0 005.661 1.59 10.86 10.86 0 004.044-.735c1.283-.5 2.45-1.239 3.43-2.174a9.947 9.947 0 002.284-3.272 9.58 9.58 0 00.781-3.862V8.5A7.399 7.399 0 0021 6.677z" fill="currentColor"></path></svg>