<svg xmlns="http://www.w3.org/2000/svg" class="sc-hBEYId fOFRjn" viewBox="0 0 24 24"><path fill-rule="evenodd" clip-rule="evenodd" d="M19.825 5.428c.857.231 1.532.906 1.763 1.763.428 1.565.412 4.827.412 4.827s0 3.245-.412 4.81a2.506 2.506 0 01-1.763 1.763c-1.565.412-7.825.412-7.825.412s-6.244 0-7.825-.428a2.506 2.506 0 01-1.763-1.763C2 15.263 2 12.002 2 12.002s0-3.246.412-4.81a2.557 2.557 0 011.763-1.78C5.74 5 12 5 12 5s6.26 0 7.825.428zm-9.818 3.575l5.206 2.999L10.006 15V9.003z" fill="currentColor"></path></svg>